<svg width="45" height="45" viewBox="0 0 45 45" fill="none" xmlns="http://www.w3.org/2000/svg">
<path d="M9.27072 5.35547C20.2158 5.35547 31.1609 5.35547 42.4377 5.35547C42.4032 5.56246 42.4032 5.56246 42.3225 5.67217C42.3035 5.67217 42.2845 5.67217 42.265 5.67217C42.2555 5.72917 42.246 5.78618 42.2362 5.84491C42.2172 5.84491 42.1982 5.84491 42.1786 5.84491C42.1691 5.88292 42.1596 5.92092 42.1498 5.96008C42.1308 5.96008 42.1118 5.96008 42.0922 5.96008C42.0898 5.98442 42.0875 6.00877 42.085 6.03385C42.0589 6.15358 42.0126 6.23059 41.9483 6.33436C41.9293 6.33436 41.9103 6.33436 41.8907 6.33436C41.8871 6.36226 41.8836 6.39017 41.8799 6.41893C41.8739 6.44803 41.868 6.47712 41.8619 6.5071C41.8429 6.5166 41.8239 6.5261 41.8043 6.53589C41.7774 6.58356 41.7525 6.63233 41.7287 6.68164C41.7159 6.70811 41.7031 6.73457 41.6898 6.76183C41.6801 6.78228 41.6704 6.80273 41.6604 6.8238C41.6414 6.8238 41.6224 6.8238 41.6028 6.8238C41.5933 6.8808 41.5838 6.93781 41.574 6.99654C41.555 6.99654 41.536 6.99654 41.5164 6.99654C41.5069 7.04405 41.4974 7.09155 41.4876 7.1405C41.4686 7.1405 41.4496 7.1405 41.43 7.1405C41.411 7.207 41.392 7.27351 41.3725 7.34203C41.3534 7.34203 41.3344 7.34203 41.3149 7.34203C41.3054 7.38954 41.2959 7.43704 41.2861 7.48599C41.2671 7.48599 41.2481 7.48599 41.2285 7.48599C41.219 7.53349 41.2095 7.581 41.1997 7.62994C41.1807 7.62994 41.1617 7.62994 41.1421 7.62994C41.1397 7.64894 41.1374 7.66794 41.1349 7.68752C41.1062 7.80241 41.0537 7.90016 40.9982 8.00422C40.9792 8.00422 40.9602 8.00422 40.9406 8.00422C40.9311 8.04223 40.9216 8.08023 40.9118 8.11938C40.8928 8.11938 40.8738 8.11938 40.8542 8.11938C40.8518 8.14373 40.8495 8.16808 40.847 8.19316C40.8209 8.31289 40.7746 8.3899 40.7103 8.49366C40.6913 8.49366 40.6723 8.49366 40.6527 8.49366C40.6497 8.51445 40.6467 8.53523 40.6437 8.55664C40.6219 8.64562 40.5906 8.70722 40.5375 8.78157C40.5185 8.78157 40.4995 8.78157 40.4799 8.78157C40.4704 8.83858 40.4609 8.89558 40.4511 8.95432C40.4084 8.96857 40.4084 8.96857 40.3648 8.98311C40.3612 9.01102 40.3576 9.03893 40.354 9.06768C40.348 9.09678 40.3421 9.12587 40.336 9.15585C40.317 9.16535 40.298 9.17485 40.2784 9.18464C40.2689 9.21315 40.2594 9.24165 40.2496 9.27102C40.2306 9.27102 40.2116 9.27102 40.192 9.27102C40.1825 9.32802 40.173 9.38503 40.1632 9.44376C40.1347 9.45326 40.1062 9.46276 40.0769 9.47255C40.0674 9.52956 40.0579 9.58656 40.0481 9.6453C40.0291 9.6453 40.0101 9.6453 39.9905 9.6453C39.981 9.6833 39.9715 9.7213 39.9617 9.76046C39.9427 9.76046 39.9237 9.76046 39.9041 9.76046C39.8946 9.81746 39.8851 9.87447 39.8753 9.9332C39.8563 9.9332 39.8373 9.9332 39.8177 9.9332C39.8136 9.95042 39.8094 9.96765 39.8052 9.98539C39.7922 10.0357 39.7766 10.0854 39.7602 10.1347C39.7412 10.1347 39.7222 10.1347 39.7026 10.1347C39.6931 10.1917 39.6836 10.2488 39.6738 10.3075C39.6548 10.3075 39.6358 10.3075 39.6162 10.3075C39.6067 10.3455 39.5972 10.3835 39.5874 10.4226C39.5684 10.4226 39.5494 10.4226 39.5298 10.4226C39.5275 10.4416 39.5251 10.4607 39.5226 10.4802C39.4939 10.5951 39.4414 10.6929 39.3859 10.7969C39.3669 10.7969 39.3479 10.7969 39.3283 10.7969C39.3188 10.8444 39.3093 10.8919 39.2995 10.9409C39.2805 10.9409 39.2615 10.9409 39.2419 10.9409C39.236 10.9629 39.2301 10.9848 39.2239 11.0075C39.1683 11.1568 39.09 11.2919 39.0116 11.4303C38.9926 11.4303 38.9736 11.4303 38.954 11.4303C38.9505 11.4582 38.9469 11.4861 38.9432 11.5149C38.9373 11.544 38.9313 11.5731 38.9252 11.6031C38.9062 11.6126 38.8872 11.6221 38.8677 11.6319C38.8467 11.6888 38.8274 11.7464 38.8101 11.8046C38.7911 11.8046 38.7721 11.8046 38.7525 11.8046C38.743 11.8426 38.7335 11.8806 38.7237 11.9198C38.7047 11.9198 38.6857 11.9198 38.6661 11.9198C38.6566 11.9768 38.6471 12.0338 38.6373 12.0925C38.6183 12.0925 38.5993 12.0925 38.5797 12.0925C38.5756 12.1097 38.5714 12.127 38.5671 12.1447C38.5542 12.1951 38.5386 12.2447 38.5222 12.294C38.5032 12.294 38.4842 12.294 38.4646 12.294C38.4616 12.3148 38.4586 12.3356 38.4556 12.357C38.4338 12.446 38.4025 12.5076 38.3494 12.582C38.3304 12.582 38.3114 12.582 38.2918 12.582C38.2883 12.6099 38.2847 12.6378 38.281 12.6665C38.2751 12.6956 38.2692 12.7247 38.263 12.7547C38.244 12.7642 38.225 12.7737 38.2055 12.7835C38.196 12.812 38.1865 12.8405 38.1767 12.8699C38.1672 12.8984 38.1577 12.9269 38.1479 12.9562C38.1289 12.9657 38.1099 12.9752 38.0903 12.985C38.0808 13.0135 38.0713 13.042 38.0615 13.0714C38.0425 13.0714 38.0235 13.0714 38.0039 13.0714C38.0004 13.0993 37.9968 13.1272 37.9931 13.156C37.9872 13.1851 37.9813 13.2142 37.9751 13.2441C37.9561 13.2536 37.9371 13.2631 37.9176 13.2729C37.8966 13.3299 37.8773 13.3875 37.86 13.4457C37.841 13.4457 37.822 13.4457 37.8024 13.4457C37.7994 13.4611 37.7965 13.4766 37.7934 13.4925C37.7684 13.5788 37.7288 13.6541 37.6872 13.7336C37.6682 13.7336 37.6492 13.7336 37.6296 13.7336C37.6267 13.7544 37.6237 13.7752 37.6207 13.7966C37.599 13.885 37.5638 13.9455 37.5145 14.0215C37.505 14.0405 37.4955 14.0595 37.4857 14.0791C37.4667 14.0791 37.4477 14.0791 37.4281 14.0791C37.4251 14.0999 37.4222 14.1206 37.4191 14.1421C37.3974 14.231 37.3661 14.2926 37.313 14.367C37.2939 14.367 37.2749 14.367 37.2554 14.367C37.2512 14.3943 37.2471 14.4216 37.2428 14.4498C37.2266 14.5397 37.2266 14.5397 37.1978 14.5973C37.1788 14.5973 37.1598 14.5973 37.1402 14.5973C37.1307 14.6448 37.1212 14.6923 37.1114 14.7413C37.0924 14.7413 37.0734 14.7413 37.0538 14.7413C37.0443 14.7888 37.0348 14.8363 37.025 14.8852C37.006 14.8852 36.987 14.8852 36.9675 14.8852C36.9559 14.9306 36.9559 14.9306 36.9441 14.977C36.9136 15.075 36.8836 15.1481 36.8235 15.2307C36.8045 15.2307 36.7855 15.2307 36.7659 15.2307C36.7624 15.2586 36.7588 15.2865 36.7551 15.3153C36.7492 15.3444 36.7433 15.3735 36.7371 15.4035C36.7181 15.413 36.6991 15.4225 36.6796 15.4322C36.67 15.4607 36.6605 15.4893 36.6508 15.5186C36.6318 15.5186 36.6128 15.5186 36.5932 15.5186C36.5837 15.5756 36.5742 15.6326 36.5644 15.6914C36.5359 15.7009 36.5074 15.7104 36.478 15.7202C36.4685 15.7772 36.459 15.8342 36.4492 15.8929C36.4302 15.8929 36.4112 15.8929 36.3916 15.8929C36.3821 15.9309 36.3726 15.9689 36.3629 16.0081C36.3439 16.0081 36.3248 16.0081 36.3053 16.0081C36.3017 16.0446 36.3017 16.0446 36.2981 16.0818C36.2719 16.2016 36.2257 16.2786 36.1613 16.3823C36.1423 16.3823 36.1233 16.3823 36.1037 16.3823C36.0942 16.4203 36.0847 16.4583 36.0749 16.4975C36.0559 16.4975 36.0369 16.4975 36.0174 16.4975C36.0138 16.534 36.0138 16.534 36.0102 16.5713C35.984 16.691 35.9377 16.768 35.8734 16.8718C35.8544 16.8718 35.8354 16.8718 35.8158 16.8718C35.8063 16.9288 35.7968 16.9858 35.787 17.0445C35.768 17.0445 35.749 17.0445 35.7295 17.0445C35.72 17.0825 35.7105 17.1205 35.7007 17.1597C35.6817 17.1597 35.6627 17.1597 35.6431 17.1597C35.6389 17.187 35.6348 17.2143 35.6305 17.2425C35.6143 17.3324 35.6143 17.3324 35.5855 17.39C35.5665 17.39 35.5475 17.39 35.5279 17.39C35.5184 17.4375 35.5089 17.485 35.4991 17.534C35.4801 17.534 35.4611 17.534 35.4415 17.534C35.432 17.5815 35.4225 17.629 35.4128 17.6779C35.3938 17.6779 35.3748 17.6779 35.3552 17.6779C35.351 17.7005 35.3469 17.7231 35.3426 17.7463C35.3264 17.8219 35.3264 17.8219 35.2976 17.8795C35.2786 17.8795 35.2596 17.8795 35.24 17.8795C35.237 17.9002 35.2341 17.921 35.231 17.9424C35.2093 18.0314 35.178 18.093 35.1249 18.1674C35.1058 18.1674 35.0868 18.1674 35.0673 18.1674C35.0578 18.2244 35.0483 18.2814 35.0385 18.3401C35.0195 18.3401 35.0005 18.3401 34.9809 18.3401C34.9619 18.4066 34.9429 18.4731 34.9233 18.5416C34.9043 18.5416 34.8853 18.5416 34.8657 18.5416C34.8628 18.5624 34.8598 18.5832 34.8567 18.6046C34.835 18.6936 34.8037 18.7552 34.7506 18.8296C34.7316 18.8296 34.7126 18.8296 34.693 18.8296C34.6888 18.8468 34.6847 18.864 34.6804 18.8817C34.6674 18.9321 34.6518 18.9818 34.6354 19.0311C34.6164 19.0311 34.5974 19.0311 34.5778 19.0311C34.5743 19.059 34.5707 19.0869 34.567 19.1157C34.5611 19.1448 34.5552 19.1739 34.549 19.2038C34.53 19.2133 34.511 19.2228 34.4915 19.2326C34.482 19.2611 34.4725 19.2896 34.4627 19.319C34.4437 19.319 34.4247 19.319 34.4051 19.319C34.4015 19.3469 34.398 19.3748 34.3943 19.4036C34.3883 19.4327 34.3824 19.4618 34.3763 19.4917C34.3573 19.5012 34.3383 19.5107 34.3187 19.5205C34.2978 19.5775 34.2785 19.6351 34.2611 19.6933C34.2421 19.6933 34.2231 19.6933 34.2035 19.6933C34.194 19.7313 34.1845 19.7693 34.1748 19.8084C34.1558 19.8084 34.1367 19.8084 34.1172 19.8084C34.1077 19.8654 34.0982 19.9225 34.0884 19.9812C34.0694 19.9812 34.0504 19.9812 34.0308 19.9812C34.0266 19.9984 34.0225 20.0156 34.0182 20.0334C34.0053 20.0837 33.9897 20.1334 33.9732 20.1827C33.9542 20.1827 33.9352 20.1827 33.9156 20.1827C33.9061 20.2302 33.8966 20.2777 33.8868 20.3267C33.8678 20.3267 33.8488 20.3267 33.8293 20.3267C33.8198 20.3742 33.8103 20.4217 33.8005 20.4706C33.7815 20.4706 33.7625 20.4706 33.7429 20.4706C33.7393 20.4991 33.7393 20.4991 33.7357 20.5282C33.707 20.6431 33.6545 20.7408 33.5989 20.8449C33.5799 20.8449 33.5609 20.8449 33.5414 20.8449C33.5319 20.8924 33.5224 20.9399 33.5126 20.9889C33.4936 20.9889 33.4746 20.9889 33.455 20.9889C33.4455 21.0364 33.436 21.0839 33.4262 21.1328C33.4072 21.1328 33.3882 21.1328 33.3686 21.1328C33.3496 21.1993 33.3306 21.2658 33.311 21.3344C33.292 21.3344 33.273 21.3344 33.2534 21.3344C33.2439 21.3819 33.2344 21.4294 33.2247 21.4783C33.2057 21.4783 33.1867 21.4783 33.1671 21.4783C33.1641 21.4991 33.1611 21.5199 33.1581 21.5413C33.1361 21.6313 33.1019 21.6884 33.0519 21.7662C33.0307 21.8027 33.0098 21.8393 32.9889 21.876C32.9717 21.9063 32.9545 21.9366 32.9368 21.9678C32.9177 21.9678 32.8987 21.9678 32.8792 21.9678C32.8697 22.0248 32.8602 22.0818 32.8504 22.1405C32.8314 22.1405 32.8124 22.1405 32.7928 22.1405C32.7833 22.1785 32.7738 22.2165 32.764 22.2557C32.745 22.2557 32.726 22.2557 32.7064 22.2557C32.704 22.28 32.7017 22.3044 32.6992 22.3294C32.6731 22.4492 32.6268 22.5262 32.5625 22.6299C32.5435 22.6299 32.5245 22.6299 32.5049 22.6299C32.4954 22.6679 32.4859 22.7059 32.4761 22.7451C32.4571 22.7451 32.4381 22.7451 32.4185 22.7451C32.4161 22.7695 32.4138 22.7938 32.4113 22.8189C32.3852 22.9386 32.3389 23.0156 32.2746 23.1194C32.2556 23.1194 32.2366 23.1194 32.217 23.1194C32.2134 23.1473 32.2099 23.1752 32.2062 23.204C32.2002 23.2331 32.1943 23.2622 32.1882 23.2921C32.1692 23.3016 32.1502 23.3111 32.1306 23.3209C32.1037 23.3686 32.0788 23.4174 32.055 23.4667C32.0422 23.4931 32.0293 23.5196 32.0161 23.5469C32.0064 23.5673 31.9967 23.5878 31.9867 23.6088C31.9677 23.6088 31.9486 23.6088 31.9291 23.6088C31.9196 23.6658 31.9101 23.7228 31.9003 23.7816C31.8813 23.7816 31.8623 23.7816 31.8427 23.7816C31.8332 23.8291 31.8237 23.8766 31.8139 23.9255C31.7949 23.9255 31.7759 23.9255 31.7563 23.9255C31.7373 23.992 31.7183 24.0585 31.6987 24.1271C31.6797 24.1271 31.6607 24.1271 31.6412 24.1271C31.6317 24.1746 31.6222 24.2221 31.6124 24.271C31.5934 24.271 31.5744 24.271 31.5548 24.271C31.5453 24.3185 31.5358 24.366 31.526 24.415C31.507 24.415 31.488 24.415 31.4684 24.415C31.4649 24.4435 31.4649 24.4435 31.4612 24.4726C31.4325 24.5874 31.38 24.6852 31.3245 24.7892C31.3055 24.7892 31.2865 24.7892 31.2669 24.7892C31.2574 24.8368 31.2479 24.8843 31.2381 24.9332C31.2191 24.9332 31.2001 24.9332 31.1805 24.9332C31.171 24.9807 31.1615 25.0282 31.1517 25.0772C31.1327 25.0772 31.1137 25.0772 31.0941 25.0772C31.09 25.0944 31.0858 25.1116 31.0815 25.1293C31.0686 25.1797 31.053 25.2294 31.0366 25.2787C31.0176 25.2787 30.9986 25.2787 30.979 25.2787C30.9745 25.3099 30.9745 25.3099 30.97 25.3417C30.9482 25.4306 30.9169 25.4922 30.8638 25.5666C30.8448 25.5666 30.8258 25.5666 30.8062 25.5666C30.7967 25.6236 30.7872 25.6806 30.7774 25.7393C30.7489 25.7488 30.7204 25.7583 30.6911 25.7681C30.6816 25.8251 30.6721 25.8821 30.6623 25.9409C30.6433 25.9409 30.6243 25.9409 30.6047 25.9409C30.5952 25.9789 30.5857 26.0169 30.5759 26.056C30.5569 26.056 30.5379 26.056 30.5183 26.056C30.5088 26.113 30.4993 26.1701 30.4895 26.2288C30.461 26.2383 30.4325 26.2478 30.4032 26.2576C30.3937 26.3146 30.3842 26.3716 30.3744 26.4303C30.3554 26.4303 30.3364 26.4303 30.3168 26.4303C30.3073 26.4683 30.2978 26.5063 30.288 26.5455C30.269 26.5455 30.25 26.5455 30.2304 26.5455C30.2209 26.6025 30.2114 26.6595 30.2016 26.7182C30.1826 26.7182 30.1636 26.7182 30.144 26.7182C30.1399 26.7355 30.1357 26.7527 30.1314 26.7704C30.1185 26.8208 30.1029 26.8704 30.0865 26.9198C30.0675 26.9198 30.0485 26.9198 30.0289 26.9198C30.0194 26.9768 30.0099 27.0338 30.0001 27.0925C29.9811 27.0925 29.9621 27.0925 29.9425 27.0925C29.933 27.1305 29.9235 27.1685 29.9137 27.2077C29.8947 27.2077 29.8757 27.2077 29.8561 27.2077C29.8532 27.2338 29.8502 27.2599 29.8471 27.2868C29.8269 27.3827 29.802 27.4218 29.741 27.4956C29.7315 27.5241 29.722 27.5526 29.7122 27.582C29.6932 27.582 29.6742 27.582 29.6546 27.582C29.6451 27.6295 29.6356 27.677 29.6258 27.7259C29.6068 27.7259 29.5878 27.7259 29.5682 27.7259C29.5587 27.7734 29.5492 27.8209 29.5394 27.8699C29.5204 27.8699 29.5014 27.8699 29.4819 27.8699C29.4741 27.9001 29.4664 27.9304 29.4585 27.9616C29.4279 28.0596 29.398 28.1328 29.3379 28.2154C29.3189 28.2154 29.2999 28.2154 29.2803 28.2154C29.2708 28.2724 29.2613 28.3294 29.2515 28.3881C29.2325 28.3881 29.2135 28.3881 29.1939 28.3881C29.1749 28.4546 29.1559 28.5211 29.1364 28.5896C29.1174 28.5896 29.0984 28.5896 29.0788 28.5896C29.0693 28.6276 29.0598 28.6656 29.05 28.7048C29.031 28.7048 29.012 28.7048 28.9924 28.7048C28.9829 28.7618 28.9734 28.8188 28.9636 28.8775C28.9446 28.8775 28.9256 28.8775 28.906 28.8775C28.9027 28.8939 28.8994 28.9102 28.896 28.927C28.8752 28.9998 28.8449 29.0568 28.8071 29.1223C28.7608 29.2029 28.7165 29.2835 28.6757 29.367C28.6567 29.367 28.6377 29.367 28.6181 29.367C28.6146 29.3949 28.611 29.4228 28.6073 29.4516C28.6014 29.4807 28.5955 29.5098 28.5893 29.5397C28.5703 29.5492 28.5513 29.5587 28.5318 29.5685C28.5108 29.6255 28.4915 29.6831 28.4742 29.7413C28.4552 29.7413 28.4362 29.7413 28.4166 29.7413C28.4071 29.7793 28.3976 29.8173 28.3878 29.8564C28.3688 29.8564 28.3498 29.8564 28.3302 29.8564C28.3207 29.9134 28.3112 29.9704 28.3014 30.0292C28.2824 30.0292 28.2634 30.0292 28.2439 30.0292C28.2248 30.0957 28.2058 30.1622 28.1863 30.2307C28.1673 30.2307 28.1483 30.2307 28.1287 30.2307C28.1192 30.2782 28.1097 30.3257 28.0999 30.3747C28.0809 30.3747 28.0619 30.3747 28.0423 30.3747C28.0328 30.4222 28.0233 30.4697 28.0135 30.5186C27.9945 30.5186 27.9755 30.5186 27.9559 30.5186C27.9464 30.5661 27.9369 30.6136 27.9272 30.6626C27.9082 30.6626 27.8891 30.6626 27.8696 30.6626C27.863 30.6911 27.8565 30.7196 27.8498 30.7489C27.8186 30.8602 27.7646 30.9474 27.7003 31.0427C27.6632 31.0977 27.6632 31.0977 27.6392 31.1808C27.6202 31.1808 27.6012 31.1808 27.5817 31.1808C27.5627 31.2473 27.5437 31.3138 27.5241 31.3823C27.5051 31.3823 27.4861 31.3823 27.4665 31.3823C27.457 31.4298 27.4475 31.4774 27.4377 31.5263C27.4187 31.5263 27.3997 31.5263 27.3801 31.5263C27.3706 31.5738 27.3611 31.6213 27.3513 31.6702C27.3323 31.6702 27.3133 31.6702 27.2938 31.6702C27.286 31.6952 27.2783 31.7201 27.2704 31.7458C27.237 31.8406 27.1964 31.9268 27.1498 32.0157C27.1308 32.0157 27.1118 32.0157 27.0922 32.0157C27.0887 32.0436 27.0851 32.0716 27.0814 32.1003C27.0755 32.1294 27.0695 32.1585 27.0634 32.1885C27.0444 32.198 27.0254 32.2075 27.0058 32.2173C26.9963 32.2458 26.9868 32.2743 26.9771 32.3036C26.9581 32.3036 26.9391 32.3036 26.9195 32.3036C26.91 32.3607 26.9005 32.4177 26.8907 32.4764C26.8622 32.4859 26.8337 32.4954 26.8043 32.5052C26.7948 32.5622 26.7853 32.6192 26.7755 32.6779C26.7565 32.6779 26.7375 32.6779 26.7179 32.6779C26.7084 32.7159 26.6989 32.7539 26.6891 32.7931C26.6701 32.7931 26.6511 32.7931 26.6316 32.7931C26.6292 32.8174 26.6268 32.8418 26.6244 32.8669C26.5982 32.9866 26.5519 33.0636 26.4876 33.1674C26.4686 33.1674 26.4496 33.1674 26.43 33.1674C26.4265 33.1953 26.4229 33.2232 26.4192 33.2519C26.4133 33.281 26.4074 33.3101 26.4012 33.3401C26.3822 33.3496 26.3632 33.3591 26.3437 33.3689C26.3342 33.3974 26.3247 33.4259 26.3149 33.4553C26.2959 33.4553 26.2769 33.4553 26.2573 33.4553C26.2531 33.4778 26.249 33.5004 26.2447 33.5237C26.2285 33.5992 26.2285 33.5992 26.1997 33.6568C26.1807 33.6568 26.1617 33.6568 26.1421 33.6568C26.1326 33.7138 26.1231 33.7708 26.1133 33.8296C26.0943 33.8296 26.0753 33.8296 26.0558 33.8296C26.0463 33.8676 26.0367 33.9056 26.027 33.9447C26.008 33.9447 25.989 33.9447 25.9694 33.9447C25.9652 33.972 25.9611 33.9994 25.9568 34.0275C25.9406 34.1175 25.9406 34.1175 25.9118 34.175C25.8928 34.175 25.8738 34.175 25.8542 34.175C25.8447 34.2226 25.8352 34.2701 25.8254 34.319C25.8064 34.319 25.7874 34.319 25.7678 34.319C25.7583 34.3665 25.7488 34.414 25.7391 34.463C25.7201 34.463 25.701 34.463 25.6815 34.463C25.677 34.4941 25.677 34.4941 25.6725 34.5259C25.6505 34.6159 25.6163 34.673 25.5663 34.7509C25.5451 34.7873 25.5241 34.8239 25.5033 34.8606C25.4861 34.8909 25.4689 34.9212 25.4511 34.9524C25.4321 34.9524 25.4131 34.9524 25.3936 34.9524C25.3841 35.0094 25.3746 35.0664 25.3648 35.1251C25.3458 35.1251 25.3268 35.1251 25.3072 35.1251C25.303 35.1424 25.2989 35.1596 25.2946 35.1773C25.2816 35.2277 25.2661 35.2774 25.2496 35.3267C25.2306 35.3267 25.2116 35.3267 25.192 35.3267C25.1891 35.3475 25.1861 35.3682 25.183 35.3897C25.1613 35.4786 25.13 35.5402 25.0769 35.6146C25.0579 35.6146 25.0389 35.6146 25.0193 35.6146C25.0151 35.6372 25.011 35.6597 25.0067 35.683C24.9905 35.7585 24.9905 35.7585 24.9617 35.8161C24.9427 35.8161 24.9237 35.8161 24.9041 35.8161C24.8988 35.858 24.8988 35.858 24.8933 35.9007C24.8874 35.9298 24.8814 35.9589 24.8753 35.9889C24.8563 35.9984 24.8373 36.0079 24.8177 36.0177C24.8082 36.0462 24.7987 36.0747 24.789 36.104C24.77 36.104 24.751 36.104 24.7314 36.104C24.726 36.1459 24.726 36.1459 24.7206 36.1886C24.7146 36.2177 24.7087 36.2468 24.7026 36.2768C24.6836 36.2863 24.6646 36.2958 24.645 36.3056C24.6241 36.3625 24.6047 36.4201 24.5874 36.4783C24.5684 36.4783 24.5494 36.4783 24.5298 36.4783C24.5203 36.5163 24.5108 36.5543 24.501 36.5935C24.482 36.5935 24.463 36.5935 24.4435 36.5935C24.434 36.6505 24.4245 36.7075 24.4147 36.7662C24.3957 36.7662 24.3767 36.7662 24.3571 36.7662C24.3529 36.7834 24.3488 36.8007 24.3445 36.8184C24.3316 36.8688 24.316 36.9184 24.2995 36.9678C24.2805 36.9678 24.2615 36.9678 24.2419 36.9678C24.2324 37.0153 24.2229 37.0628 24.2131 37.1117C24.1941 37.1117 24.1751 37.1117 24.1556 37.1117C24.1461 37.1592 24.1366 37.2067 24.1268 37.2557C24.1078 37.2557 24.0888 37.2557 24.0692 37.2557C24.0597 37.3032 24.0502 37.3507 24.0404 37.3996C24.0214 37.3996 24.0024 37.3996 23.9828 37.3996C23.9787 37.4216 23.9745 37.4436 23.9702 37.4662C23.954 37.5436 23.954 37.5436 23.9252 37.6299C23.9062 37.6299 23.8872 37.6299 23.8677 37.6299C23.8582 37.6774 23.8487 37.725 23.8389 37.7739C23.8199 37.7739 23.8009 37.7739 23.7813 37.7739C23.7718 37.8214 23.7623 37.8689 23.7525 37.9179C23.7335 37.9179 23.7145 37.9179 23.6949 37.9179C23.6759 37.9844 23.6569 38.0509 23.6373 38.1194C23.6183 38.1194 23.5993 38.1194 23.5797 38.1194C23.5702 38.1669 23.5607 38.2144 23.551 38.2633C23.532 38.2633 23.5129 38.2633 23.4934 38.2633C23.4904 38.2841 23.4874 38.3049 23.4844 38.3263C23.4624 38.4163 23.4282 38.4734 23.3782 38.5512C23.357 38.5877 23.336 38.6243 23.3152 38.661C23.298 38.6913 23.2808 38.7216 23.263 38.7528C23.244 38.7528 23.225 38.7528 23.2055 38.7528C23.196 38.8098 23.1865 38.8668 23.1767 38.9255C23.1577 38.9255 23.1387 38.9255 23.1191 38.9255C23.1096 38.9635 23.1001 39.0015 23.0903 39.0407C23.0713 39.0407 23.0523 39.0407 23.0327 39.0407C23.0292 39.0772 23.0292 39.0772 23.0255 39.1145C22.9994 39.2342 22.9531 39.3112 22.8888 39.415C22.8698 39.415 22.8508 39.415 22.8312 39.415C22.8217 39.453 22.8122 39.491 22.8024 39.5301C22.7834 39.5301 22.7644 39.5301 22.7448 39.5301C22.7353 39.5776 22.7258 39.6251 22.716 39.6741C22.6875 39.6741 22.659 39.6741 22.6296 39.6741C22.6201 39.6266 22.6106 39.5791 22.6009 39.5301C22.5819 39.5301 22.5629 39.5301 22.5433 39.5301C22.5191 39.4841 22.4951 39.4378 22.4713 39.3916C22.4579 39.3659 22.4446 39.3401 22.4308 39.3136C22.3993 39.2422 22.3993 39.2422 22.3993 39.1559C22.3708 39.1464 22.3423 39.1368 22.313 39.1271C22.313 39.0986 22.313 39.0701 22.313 39.0407C22.2939 39.0407 22.2749 39.0407 22.2554 39.0407C22.2459 38.9837 22.2364 38.9267 22.2266 38.8679C22.1981 38.8584 22.1696 38.8489 22.1402 38.8392C22.1402 38.8107 22.1402 38.7821 22.1402 38.7528C22.1212 38.7528 22.1022 38.7528 22.0826 38.7528C22.0406 38.6766 22.025 38.6407 22.025 38.5512C22.006 38.5512 21.987 38.5512 21.9675 38.5512C21.958 38.4942 21.9485 38.4372 21.9387 38.3785C21.9102 38.369 21.8817 38.3595 21.8523 38.3497C21.8523 38.3212 21.8523 38.2927 21.8523 38.2633C21.8333 38.2633 21.8143 38.2633 21.7947 38.2633C21.7864 38.2354 21.7781 38.2075 21.7695 38.1788C21.7474 38.0875 21.7474 38.0875 21.6796 38.0618C21.6616 37.9736 21.6616 37.9736 21.6508 37.8891C21.6318 37.8891 21.6128 37.8891 21.5932 37.8891C21.5814 37.8672 21.5696 37.8453 21.5574 37.8228C21.5419 37.7942 21.5264 37.7656 21.5104 37.7361C21.4874 37.6935 21.4874 37.6935 21.4638 37.6501C21.4202 37.5696 21.4202 37.5696 21.3629 37.486C21.3629 37.4575 21.3629 37.429 21.3629 37.3996C21.3439 37.3996 21.3248 37.3996 21.3053 37.3996C21.2958 37.3521 21.2863 37.3046 21.2765 37.2557C21.2575 37.2557 21.2385 37.2557 21.2189 37.2557C21.1947 37.2096 21.1708 37.1634 21.1469 37.1171C21.1336 37.0914 21.1202 37.0657 21.1064 37.0392C21.0749 36.9678 21.0749 36.9678 21.0749 36.8814C21.0559 36.8814 21.0369 36.8814 21.0174 36.8814C21.0079 36.8339 20.9984 36.7864 20.9886 36.7374C20.9696 36.7374 20.9506 36.7374 20.931 36.7374C20.9215 36.6899 20.912 36.6424 20.9022 36.5935C20.8832 36.5935 20.8642 36.5935 20.8446 36.5935C20.8256 36.527 20.8066 36.4605 20.787 36.3919C20.768 36.3919 20.749 36.3919 20.7295 36.3919C20.72 36.3349 20.7105 36.2779 20.7007 36.2192C20.6722 36.2097 20.6437 36.2002 20.6143 36.1904C20.6143 36.1619 20.6143 36.1334 20.6143 36.104C20.5953 36.104 20.5763 36.104 20.5567 36.104C20.5472 36.047 20.5377 35.99 20.5279 35.9313C20.4994 35.9218 20.4709 35.9123 20.4415 35.9025C20.432 35.8455 20.4225 35.7885 20.4128 35.7297C20.3938 35.7297 20.3748 35.7297 20.3552 35.7297C20.3457 35.7012 20.3362 35.6727 20.3264 35.6434C20.3074 35.6339 20.2884 35.6244 20.2688 35.6146C20.2508 35.5264 20.2508 35.5264 20.24 35.4418C20.221 35.4418 20.202 35.4418 20.1824 35.4418C20.1404 35.3656 20.1248 35.3297 20.1248 35.2403C20.1058 35.2403 20.0868 35.2403 20.0673 35.2403C19.9521 35.0496 19.9521 35.0496 19.9521 34.9524C19.9331 34.9524 19.9141 34.9524 19.8945 34.9524C19.8703 34.9063 19.8464 34.8601 19.8225 34.8138C19.8092 34.7881 19.7958 34.7624 19.7821 34.7359C19.7506 34.6645 19.7506 34.6645 19.7506 34.5781C19.7221 34.5686 19.6936 34.5591 19.6642 34.5493C19.6642 34.5208 19.6642 34.4923 19.6642 34.463C19.6452 34.463 19.6262 34.463 19.6066 34.463C19.5971 34.4059 19.5876 34.3489 19.5778 34.2902C19.5588 34.2902 19.5398 34.2902 19.5202 34.2902C19.4782 34.214 19.4627 34.1781 19.4627 34.0887C19.4437 34.0887 19.4247 34.0887 19.4051 34.0887C19.3956 34.0412 19.3861 33.9937 19.3763 33.9447C19.3573 33.9447 19.3383 33.9447 19.3187 33.9447C19.3092 33.8972 19.2997 33.8497 19.2899 33.8008C19.2709 33.8008 19.2519 33.8008 19.2323 33.8008C19.2133 33.7343 19.1943 33.6678 19.1748 33.5992C19.1558 33.5992 19.1367 33.5992 19.1172 33.5992C19.1077 33.5517 19.0982 33.5042 19.0884 33.4553C19.0694 33.4553 19.0504 33.4553 19.0308 33.4553C19.0086 33.4109 18.9864 33.3665 18.9642 33.3221C18.9511 33.296 18.9379 33.2698 18.9244 33.2428C18.895 33.1838 18.8665 33.1244 18.8383 33.0648C18.8073 32.9911 18.8073 32.9911 18.7429 32.9658C18.7249 32.8777 18.7249 32.8777 18.7141 32.7931C18.6951 32.7931 18.6761 32.7931 18.6565 32.7931C18.6323 32.747 18.6084 32.7008 18.5845 32.6545C18.5712 32.6288 18.5578 32.6031 18.5441 32.5766C18.5126 32.5052 18.5126 32.5052 18.5126 32.4188C18.4841 32.4093 18.4556 32.3998 18.4262 32.39C18.4262 32.3615 18.4262 32.333 18.4262 32.3036C18.4072 32.3036 18.3882 32.3036 18.3686 32.3036C18.3591 32.2466 18.3496 32.1896 18.3398 32.1309C18.3113 32.1214 18.2828 32.1119 18.2534 32.1021C18.2218 32.0436 18.2218 32.0436 18.1941 31.9726C18.1605 31.8729 18.1605 31.8729 18.0807 31.8142C18.0627 31.726 18.0627 31.726 18.0519 31.6415C18.0329 31.6415 18.0139 31.6415 17.9943 31.6415C17.9825 31.6196 17.9707 31.5977 17.9586 31.5752C17.9431 31.5466 17.9275 31.518 17.9116 31.4885C17.8962 31.4601 17.8808 31.4317 17.865 31.4025C17.8214 31.322 17.8214 31.322 17.764 31.2384C17.764 31.2099 17.764 31.1814 17.764 31.152C17.745 31.152 17.726 31.152 17.7064 31.152C17.6969 31.1045 17.6874 31.057 17.6776 31.0081C17.6586 31.0081 17.6396 31.0081 17.6201 31.0081C17.5959 30.9613 17.572 30.9145 17.5481 30.8677C17.5347 30.8417 17.5214 30.8156 17.5076 30.7888C17.4761 30.7202 17.4761 30.7202 17.4761 30.6626C17.4571 30.6626 17.4381 30.6626 17.4185 30.6626C17.409 30.6151 17.3995 30.5676 17.3897 30.5186C17.3707 30.5186 17.3517 30.5186 17.3321 30.5186C17.3079 30.4725 17.284 30.4263 17.2602 30.3801C17.2468 30.3543 17.2334 30.3286 17.2197 30.3021C17.1882 30.2307 17.1882 30.2307 17.1882 30.1443C17.1692 30.1443 17.1502 30.1443 17.1306 30.1443C17.1211 30.0968 17.1116 30.0493 17.1018 30.0004C17.0828 30.0004 17.0638 30.0004 17.0442 30.0004C17.0347 29.9529 17.0252 29.9054 17.0154 29.8564C16.9964 29.8564 16.9774 29.8564 16.9579 29.8564C16.9389 29.7899 16.9199 29.7234 16.9003 29.6549C16.8813 29.6549 16.8623 29.6549 16.8427 29.6549C16.8332 29.5979 16.8237 29.5409 16.8139 29.4821C16.7854 29.4726 16.7569 29.4631 16.7275 29.4534C16.7275 29.4249 16.7275 29.3964 16.7275 29.367C16.7085 29.367 16.6895 29.367 16.67 29.367C16.6605 29.31 16.651 29.253 16.6412 29.1942C16.6127 29.1847 16.5842 29.1752 16.5548 29.1654C16.5453 29.1084 16.5358 29.0514 16.526 28.9927C16.507 28.9927 16.488 28.9927 16.4684 28.9927C16.4589 28.9642 16.4494 28.9357 16.4396 28.9063C16.4206 28.8968 16.4016 28.8873 16.382 28.8775C16.3641 28.7894 16.3641 28.7894 16.3533 28.7048C16.3343 28.7048 16.3153 28.7048 16.2957 28.7048C16.2536 28.6286 16.2381 28.5927 16.2381 28.5033C16.2191 28.5033 16.2001 28.5033 16.1805 28.5033C16.0653 28.3125 16.0653 28.3125 16.0653 28.2154C16.0463 28.2154 16.0273 28.2154 16.0078 28.2154C15.9836 28.1693 15.9596 28.1231 15.9358 28.0768C15.9224 28.0511 15.9091 28.0254 15.8953 27.9989C15.8638 27.9274 15.8638 27.9274 15.8638 27.8411C15.8448 27.8411 15.8258 27.8411 15.8062 27.8411C15.7967 27.8031 15.7872 27.7651 15.7774 27.7259C15.7584 27.7259 15.7394 27.7259 15.7199 27.7259C15.7104 27.6689 15.7009 27.6119 15.6911 27.5532C15.6721 27.5532 15.6531 27.5532 15.6335 27.5532C15.5914 27.4769 15.5759 27.441 15.5759 27.3516C15.5569 27.3516 15.5379 27.3516 15.5183 27.3516C15.5088 27.3041 15.4993 27.2566 15.4895 27.2077C15.4705 27.2077 15.4515 27.2077 15.432 27.2077C15.4225 27.1602 15.4129 27.1127 15.4032 27.0637C15.3842 27.0637 15.3652 27.0637 15.3456 27.0637C15.3094 26.9801 15.288 26.9256 15.288 26.8334C15.269 26.8334 15.25 26.8334 15.2304 26.8334C15.2209 26.7954 15.2114 26.7574 15.2016 26.7182C15.1826 26.7182 15.1636 26.7182 15.144 26.7182C15.1345 26.6612 15.125 26.6042 15.1153 26.5455C15.0963 26.5455 15.0772 26.5455 15.0577 26.5455C15.0335 26.4988 15.0096 26.452 14.9857 26.4051C14.9723 26.3791 14.959 26.353 14.9452 26.3262C14.9137 26.2576 14.9137 26.2576 14.9137 26.2C14.8947 26.2 14.8757 26.2 14.8561 26.2C14.8466 26.1525 14.8371 26.105 14.8273 26.056C14.8083 26.056 14.7893 26.056 14.7698 26.056C14.7456 26.01 14.7216 25.9638 14.6978 25.9175C14.6844 25.8918 14.6711 25.8661 14.6573 25.8396C14.6258 25.7681 14.6258 25.7681 14.6258 25.6818C14.5973 25.6723 14.5688 25.6628 14.5394 25.653C14.5394 25.6245 14.5394 25.596 14.5394 25.5666C14.5204 25.5666 14.5014 25.5666 14.4819 25.5666C14.4724 25.5096 14.4629 25.4526 14.4531 25.3939C14.4246 25.3844 14.3961 25.3749 14.3667 25.3651C14.3351 25.3066 14.3351 25.3066 14.3073 25.2355C14.2738 25.1359 14.2738 25.1359 14.1939 25.0772C14.176 24.989 14.176 24.989 14.1652 24.9044C14.1462 24.9044 14.1272 24.9044 14.1076 24.9044C14.0834 24.8577 14.0595 24.8109 14.0356 24.7641C14.0222 24.738 14.0089 24.712 13.9951 24.6851C13.9636 24.6165 13.9636 24.6165 13.9636 24.5589C13.9446 24.5589 13.9256 24.5589 13.906 24.5589C13.8965 24.5114 13.887 24.4639 13.8772 24.415C13.8582 24.415 13.8392 24.415 13.8197 24.415C13.8102 24.3675 13.8007 24.32 13.7909 24.271C13.7719 24.271 13.7529 24.271 13.7333 24.271C13.6971 24.1873 13.6757 24.1329 13.6757 24.0407C13.6567 24.0407 13.6377 24.0407 13.6181 24.0407C13.503 23.8464 13.503 23.8464 13.503 23.7816C13.484 23.7816 13.465 23.7816 13.4454 23.7816C13.4359 23.7246 13.4264 23.6676 13.4166 23.6088C13.3976 23.6088 13.3786 23.6088 13.359 23.6088C13.317 23.5326 13.3014 23.4967 13.3014 23.4073C13.2824 23.4073 13.2634 23.4073 13.2439 23.4073C13.2344 23.3598 13.2248 23.3123 13.2151 23.2633C13.1961 23.2633 13.1771 23.2633 13.1575 23.2633C13.148 23.2158 13.1385 23.1683 13.1287 23.1194C13.1097 23.1194 13.0907 23.1194 13.0711 23.1194C13.0521 23.0529 13.0331 22.9864 13.0135 22.9178C12.9945 22.9178 12.9755 22.9178 12.9559 22.9178C12.9464 22.8608 12.9369 22.8038 12.9272 22.7451C12.8986 22.7356 12.8701 22.7261 12.8408 22.7163C12.8408 22.6878 12.8408 22.6593 12.8408 22.6299C12.8218 22.6299 12.8028 22.6299 12.7832 22.6299C12.7737 22.5729 12.7642 22.5159 12.7544 22.4572C12.7259 22.4477 12.6974 22.4382 12.668 22.4284C12.6585 22.3714 12.649 22.3144 12.6392 22.2557C12.6202 22.2557 12.6012 22.2557 12.5817 22.2557C12.5722 22.2272 12.5627 22.1987 12.5529 22.1693C12.5339 22.1598 12.5149 22.1503 12.4953 22.1405C12.4773 22.0523 12.4773 22.0523 12.4665 21.9678C12.4475 21.9678 12.4285 21.9678 12.4089 21.9678C12.3669 21.8915 12.3513 21.8556 12.3513 21.7662C12.3323 21.7662 12.3133 21.7662 12.2938 21.7662C12.2843 21.7092 12.2748 21.6522 12.265 21.5935C12.2365 21.584 12.208 21.5745 12.1786 21.5647C12.1786 21.5362 12.1786 21.5077 12.1786 21.4783C12.1596 21.4783 12.1406 21.4783 12.121 21.4783C12.102 21.4118 12.083 21.3453 12.0634 21.2768C12.0444 21.2768 12.0254 21.2768 12.0058 21.2768C11.9963 21.2198 11.9868 21.1628 11.9771 21.104C11.9581 21.104 11.9391 21.104 11.9195 21.104C11.8043 20.9133 11.8043 20.9133 11.8043 20.8161C11.7853 20.8161 11.7663 20.8161 11.7467 20.8161C11.7047 20.7399 11.6891 20.704 11.6891 20.6146C11.6701 20.6146 11.6511 20.6146 11.6316 20.6146C11.6221 20.5671 11.6126 20.5196 11.6028 20.4706C11.5838 20.4706 11.5648 20.4706 11.5452 20.4706C11.5357 20.4231 11.5262 20.3756 11.5164 20.3267C11.4974 20.3267 11.4784 20.3267 11.4588 20.3267C11.4226 20.243 11.4012 20.1886 11.4012 20.0964C11.3822 20.0964 11.3632 20.0964 11.3437 20.0964C11.3342 20.0583 11.3247 20.0203 11.3149 19.9812C11.2959 19.9812 11.2769 19.9812 11.2573 19.9812C11.2478 19.9242 11.2383 19.8672 11.2285 19.8084C11.2095 19.8084 11.1905 19.8084 11.1709 19.8084C11.1467 19.7624 11.1228 19.7162 11.0989 19.6699C11.0856 19.6442 11.0722 19.6184 11.0585 19.592C11.027 19.5205 11.027 19.5205 11.027 19.4342C10.9985 19.4247 10.97 19.4152 10.9406 19.4054C10.9406 19.3769 10.9406 19.3484 10.9406 19.319C10.9216 19.319 10.9026 19.319 10.883 19.319C10.8588 19.2729 10.8349 19.2267 10.811 19.1804C10.7977 19.1547 10.7843 19.129 10.7705 19.1025C10.7391 19.0311 10.7391 19.0311 10.7391 18.9447C10.7105 18.9352 10.682 18.9257 10.6527 18.9159C10.6527 18.8874 10.6527 18.8589 10.6527 18.8296C10.6337 18.8296 10.6147 18.8296 10.5951 18.8296C10.5856 18.7726 10.5761 18.7155 10.5663 18.6568C10.5378 18.6473 10.5093 18.6378 10.4799 18.628C10.4704 18.571 10.4609 18.514 10.4511 18.4553C10.4321 18.4553 10.4131 18.4553 10.3936 18.4553C10.3841 18.4268 10.3746 18.3983 10.3648 18.3689C10.3458 18.3594 10.3268 18.3499 10.3072 18.3401C10.2892 18.2519 10.2892 18.2519 10.2784 18.1674C10.2594 18.1674 10.2404 18.1674 10.2208 18.1674C10.1967 18.1207 10.1727 18.0739 10.1488 18.027C10.1355 18.001 10.1221 17.9749 10.1084 17.9481C10.0769 17.8795 10.0769 17.8795 10.0769 17.8219C10.0579 17.8219 10.0389 17.8219 10.0193 17.8219C10.0098 17.7744 10.0003 17.7269 9.99049 17.6779C9.97149 17.6779 9.95249 17.6779 9.93291 17.6779C9.92341 17.6304 9.91391 17.5829 9.90412 17.534C9.88512 17.534 9.86612 17.534 9.84654 17.534C9.81036 17.4503 9.78896 17.3959 9.78896 17.3036C9.76996 17.3036 9.75095 17.3036 9.73138 17.3036C9.72187 17.2561 9.71237 17.2086 9.70258 17.1597C9.68358 17.1597 9.66458 17.1597 9.645 17.1597C9.6355 17.1122 9.626 17.0647 9.61621 17.0157C9.59721 17.0157 9.57821 17.0157 9.55863 17.0157C9.54913 16.9682 9.53963 16.9207 9.52984 16.8718C9.51084 16.8718 9.49184 16.8718 9.47226 16.8718C9.43021 16.7956 9.41468 16.7597 9.41468 16.6702C9.39567 16.6702 9.37667 16.6702 9.3571 16.6702C9.34759 16.6132 9.33809 16.5562 9.3283 16.4975C9.2998 16.488 9.2713 16.4785 9.24193 16.4687C9.24193 16.4402 9.24193 16.4117 9.24193 16.3823C9.22293 16.3823 9.20393 16.3823 9.18435 16.3823C9.17188 16.3405 9.17188 16.3405 9.15916 16.2978C9.13707 16.2065 9.13707 16.2065 9.06919 16.1808C9.05119 16.0926 9.05119 16.0926 9.0404 16.0081C9.02139 16.0081 9.00239 16.0081 8.98281 16.0081C8.97331 15.9796 8.96381 15.9511 8.95402 15.9217C8.93502 15.9122 8.91602 15.9027 8.89644 15.8929C8.87725 15.8353 8.85805 15.7777 8.83886 15.7202C8.81986 15.7107 8.80086 15.7012 8.78128 15.6914C8.76329 15.6032 8.76329 15.6032 8.75249 15.5186C8.73349 15.5186 8.71448 15.5186 8.69491 15.5186C8.57974 15.3279 8.57974 15.3279 8.57974 15.2307C8.56074 15.2307 8.54174 15.2307 8.52216 15.2307C8.48011 15.1545 8.46458 15.1186 8.46458 15.0292C8.44558 15.0292 8.42658 15.0292 8.407 15.0292C8.3975 14.9722 8.388 14.9152 8.37821 14.8564C8.34971 14.8469 8.3212 14.8374 8.29184 14.8276C8.29184 14.7991 8.29184 14.7706 8.29184 14.7413C8.27283 14.7413 8.25383 14.7413 8.23425 14.7413C8.21005 14.6952 8.18611 14.649 8.16228 14.6027C8.14892 14.577 8.13556 14.5513 8.12179 14.5248C8.0903 14.4534 8.0903 14.4534 8.0903 14.367C8.0713 14.367 8.0523 14.367 8.03272 14.367C8.02322 14.3195 8.01372 14.272 8.00393 14.223C7.98493 14.223 7.96592 14.223 7.94635 14.223C7.93685 14.1755 7.92734 14.128 7.91756 14.0791C7.89855 14.0791 7.87955 14.0791 7.85997 14.0791C7.83147 13.9793 7.83147 13.9793 7.80239 13.8775C7.78339 13.8775 7.76439 13.8775 7.74481 13.8775C7.73531 13.83 7.72581 13.7825 7.71602 13.7336C7.69702 13.7336 7.67802 13.7336 7.65844 13.7336C7.62965 13.676 7.60086 13.6184 7.57207 13.5608C7.55514 13.5297 7.55514 13.5297 7.53788 13.4979C7.51449 13.4457 7.51448 13.4457 7.51448 13.3593C7.49548 13.3593 7.47648 13.3593 7.4569 13.3593C7.4474 13.3308 7.4379 13.3023 7.42811 13.2729C7.40911 13.2634 7.39011 13.2539 7.37053 13.2441C7.35254 13.156 7.35254 13.156 7.34174 13.0714C7.32274 13.0714 7.30374 13.0714 7.28416 13.0714C7.25995 13.0253 7.23601 12.9791 7.21218 12.9328C7.19882 12.9071 7.18546 12.8814 7.17169 12.8549C7.1402 12.7835 7.1402 12.7835 7.1402 12.6971C7.1117 12.6876 7.0832 12.6781 7.05383 12.6683C7.05383 12.6398 7.05383 12.6113 7.05383 12.582C7.03483 12.582 7.01583 12.582 6.99625 12.582C6.97205 12.5359 6.9481 12.4897 6.92427 12.4434C6.91091 12.4177 6.89755 12.392 6.88379 12.3655C6.8523 12.294 6.8523 12.294 6.8523 12.2077C6.82379 12.1982 6.79529 12.1887 6.76592 12.1789C6.76592 12.1504 6.76592 12.1219 6.76592 12.0925C6.74692 12.0925 6.72792 12.0925 6.70834 12.0925C6.69884 12.0355 6.68934 11.9785 6.67955 11.9198C6.65105 11.9103 6.62255 11.9008 6.59318 11.891C6.58368 11.834 6.57418 11.777 6.56439 11.7182C6.54539 11.7182 6.52639 11.7182 6.50681 11.7182C6.39164 11.5275 6.39164 11.5275 6.39164 11.4303C6.37264 11.4303 6.35364 11.4303 6.33406 11.4303C6.30993 11.3836 6.28597 11.3368 6.26209 11.29C6.24872 11.2639 6.23536 11.2379 6.2216 11.211C6.19011 11.1424 6.19011 11.1424 6.19011 11.0848C6.17111 11.0848 6.1521 11.0848 6.13253 11.0848C6.11828 11.0136 6.11828 11.0136 6.10374 10.9409C6.08473 10.9409 6.06573 10.9409 6.04615 10.9409C6.0319 10.8696 6.0319 10.8696 6.01736 10.7969C5.99836 10.7969 5.97936 10.7969 5.95978 10.7969C5.9236 10.7133 5.9022 10.6588 5.9022 10.5666C5.8832 10.5666 5.8642 10.5666 5.84462 10.5666C5.83037 10.4953 5.83037 10.4953 5.81583 10.4226C5.79683 10.4226 5.77782 10.4226 5.75825 10.4226C5.744 10.3514 5.744 10.3514 5.72946 10.2787C5.71045 10.2787 5.69145 10.2787 5.67187 10.2787C5.65313 10.2428 5.63458 10.2068 5.61609 10.1707C5.60574 10.1507 5.59538 10.1306 5.58471 10.11C5.55799 10.0512 5.5414 9.99622 5.52792 9.9332C5.50892 9.9332 5.48992 9.9332 5.47034 9.9332C5.46084 9.8762 5.45134 9.81919 5.44155 9.76046C5.41305 9.75096 5.38454 9.74146 5.35518 9.73167C5.35518 9.70317 5.35518 9.67466 5.35518 9.6453C5.33617 9.6453 5.31717 9.6453 5.29759 9.6453C5.28928 9.61739 5.28097 9.58948 5.2724 9.56072C5.25032 9.46948 5.25032 9.46948 5.18243 9.44376C5.16444 9.35559 5.16444 9.35559 5.15364 9.27102C5.13464 9.27102 5.11564 9.27102 5.09606 9.27102C5.08656 9.24251 5.07706 9.21401 5.06727 9.18464C5.04827 9.17514 5.02926 9.16564 5.00969 9.15585C4.98 9.08906 4.95126 9.02185 4.92331 8.95432C4.90431 8.92581 4.88531 8.89731 4.86573 8.86794C4.86573 8.83944 4.86573 8.81094 4.86573 8.78157C4.84673 8.78157 4.82773 8.78157 4.80815 8.78157C4.69299 8.59083 4.69299 8.59083 4.69299 8.49366C4.67399 8.49366 4.65498 8.49366 4.63541 8.49366C4.59335 8.41744 4.57782 8.38154 4.57782 8.29213C4.55882 8.29213 4.53982 8.29213 4.52024 8.29213C4.51074 8.23512 4.50124 8.17812 4.49145 8.11938C4.47245 8.11938 4.45345 8.11938 4.43387 8.11938C4.40965 8.07813 4.38571 8.03671 4.36189 7.99522C4.34853 7.97218 4.33517 7.94913 4.32141 7.92538C4.28992 7.86027 4.28992 7.86027 4.28992 7.77389C4.27091 7.77389 4.25191 7.77389 4.23234 7.77389C4.22283 7.72639 4.21333 7.67889 4.20354 7.62994C4.18454 7.62994 4.16554 7.62994 4.14596 7.62994C4.13646 7.58244 4.12696 7.53493 4.11717 7.48599C4.09817 7.48599 4.07917 7.48599 4.05959 7.48599C4.04831 7.46283 4.03703 7.43967 4.0254 7.41581C3.97259 7.31201 3.91587 7.21123 3.85772 7.11036C3.82926 7.05413 3.82926 7.05413 3.82926 6.99654C3.81026 6.99654 3.79126 6.99654 3.77168 6.99654C3.76218 6.93954 3.75268 6.88253 3.74289 6.8238C3.72389 6.8238 3.70489 6.8238 3.68531 6.8238C3.64326 6.74758 3.62773 6.71167 3.62773 6.62226C3.60873 6.62226 3.58972 6.62226 3.57015 6.62226C3.56065 6.59376 3.55115 6.56526 3.54136 6.53589C3.52235 6.52639 3.50335 6.51689 3.48377 6.5071C3.46578 6.41893 3.46578 6.41893 3.45498 6.33436C3.43598 6.33436 3.41698 6.33436 3.3974 6.33436C3.35535 6.25814 3.33982 6.22223 3.33982 6.13282C3.32082 6.13282 3.30182 6.13282 3.28224 6.13282C3.27274 6.07581 3.26324 6.01881 3.25345 5.96008C3.22495 5.95057 3.19644 5.94107 3.16708 5.93128C3.16708 5.90278 3.16708 5.87428 3.16708 5.84491C3.14807 5.84491 3.12907 5.84491 3.10949 5.84491C3.09999 5.78791 3.09049 5.7309 3.0807 5.67217C3.0522 5.66267 3.0237 5.65317 2.99433 5.64338C2.98483 5.58637 2.97533 5.52937 2.96554 5.47063C2.94654 5.47063 2.92754 5.47063 2.90796 5.47063C2.90796 5.44213 2.90796 5.41363 2.90796 5.38426C4.56113 5.38426 6.21429 5.38426 7.91756 5.38426C7.92706 5.44127 7.93656 5.49827 7.94635 5.557C7.96535 5.557 7.98435 5.557 8.00393 5.557C8.01573 5.57886 8.02753 5.60072 8.03969 5.62325C8.05521 5.65186 8.07072 5.68047 8.0867 5.70996C8.10207 5.73835 8.11743 5.76674 8.13326 5.79599C8.17688 5.87646 8.17688 5.87646 8.23425 5.96008C8.23425 5.98858 8.23425 6.01708 8.23425 6.04645C8.25326 6.04645 8.27226 6.04645 8.29184 6.04645C8.30134 6.09395 8.31084 6.14146 8.32063 6.1904C8.33963 6.1904 8.35863 6.1904 8.37821 6.1904C8.39001 6.21434 8.40181 6.23828 8.41397 6.26294C8.42949 6.29423 8.445 6.32551 8.46098 6.35775C8.47635 6.38881 8.49171 6.41988 8.50754 6.45188C8.55015 6.53815 8.55015 6.53815 8.60853 6.62226C8.60853 6.65077 8.60853 6.67927 8.60853 6.70864C8.62754 6.70864 8.64654 6.70864 8.66612 6.70864C8.67562 6.75614 8.68512 6.80365 8.69491 6.85259C8.71391 6.85259 8.73291 6.85259 8.75249 6.85259C8.77149 6.9191 8.79049 6.9856 8.81007 7.05413C8.82907 7.05413 8.84807 7.05413 8.86765 7.05413C8.87715 7.10163 8.88665 7.14913 8.89644 7.19808C8.91544 7.19808 8.93445 7.19808 8.95402 7.19808C8.96353 7.24558 8.97303 7.29309 8.98281 7.34203C9.00182 7.34203 9.02082 7.34203 9.0404 7.34203C9.06919 7.39961 9.09798 7.4572 9.12677 7.51478C9.13805 7.53556 9.14933 7.55634 9.16096 7.57776C9.18435 7.62994 9.18435 7.62994 9.18435 7.71631C9.20335 7.71631 9.22235 7.71631 9.24193 7.71631C9.25143 7.74482 9.26093 7.77332 9.27072 7.80269C9.28972 7.81219 9.30873 7.82169 9.3283 7.83148C9.3463 7.91965 9.3463 7.91965 9.3571 8.00422C9.3761 8.00422 9.3951 8.00422 9.41468 8.00422C9.45673 8.08044 9.47226 8.11635 9.47226 8.20576C9.49126 8.20576 9.51026 8.20576 9.52984 8.20576C9.53934 8.26276 9.54884 8.31977 9.55863 8.3785C9.58713 8.388 9.61564 8.3975 9.645 8.40729C9.645 8.4358 9.645 8.4643 9.645 8.49366C9.66401 8.49366 9.68301 8.49366 9.70258 8.49366C9.72679 8.53974 9.75073 8.58595 9.77456 8.63222C9.78792 8.65794 9.80128 8.68366 9.81505 8.71016C9.84654 8.78157 9.84654 8.78157 9.84654 8.86794C9.87504 8.87745 9.90354 8.88695 9.93291 8.89674C9.93291 8.92524 9.93291 8.95374 9.93291 8.98311C9.95191 8.98311 9.97091 8.98311 9.99049 8.98311C9.99999 9.04011 10.0095 9.09712 10.0193 9.15585C10.0478 9.16535 10.0763 9.17485 10.1057 9.18464C10.1152 9.24165 10.1247 9.29865 10.1344 9.35739C10.1534 9.35739 10.1725 9.35739 10.192 9.35739C10.3072 9.54813 10.3072 9.54813 10.3072 9.6453C10.3262 9.6453 10.3452 9.6453 10.3648 9.6453C10.4068 9.72152 10.4224 9.75742 10.4224 9.84683C10.4414 9.84683 10.4604 9.84683 10.4799 9.84683C10.4894 9.89434 10.4989 9.94184 10.5087 9.99079C10.5277 9.99079 10.5467 9.99079 10.5663 9.99079C10.5758 10.0383 10.5853 10.0858 10.5951 10.1347C10.6141 10.1347 10.6331 10.1347 10.6527 10.1347C10.6769 10.1808 10.7008 10.227 10.7247 10.2733C10.7447 10.3119 10.7447 10.3119 10.7651 10.3512C10.7966 10.4226 10.7966 10.4226 10.7966 10.509C10.8156 10.509 10.8346 10.509 10.8542 10.509C10.8637 10.5565 10.8732 10.604 10.883 10.653C10.902 10.653 10.921 10.653 10.9406 10.653C10.9648 10.699 10.9887 10.7453 11.0126 10.7915C11.0326 10.8301 11.0326 10.8301 11.0531 10.8695C11.0845 10.9409 11.0845 10.9409 11.0845 11.0273C11.113 11.0368 11.1415 11.0463 11.1709 11.056C11.1709 11.0845 11.1709 11.1131 11.1709 11.1424C11.1899 11.1424 11.2089 11.1424 11.2285 11.1424C11.238 11.1994 11.2475 11.2564 11.2573 11.3152C11.2858 11.3247 11.3143 11.3342 11.3437 11.344C11.3753 11.4024 11.3753 11.4024 11.403 11.4735C11.4366 11.5731 11.4366 11.5731 11.5164 11.6319C11.5344 11.72 11.5344 11.72 11.5452 11.8046C11.5642 11.8046 11.5832 11.8046 11.6028 11.8046C11.6125 11.8251 11.6222 11.8455 11.6322 11.8666C11.6451 11.893 11.6579 11.9195 11.6712 11.9468C11.6838 11.9731 11.6965 11.9995 11.7096 12.0267C11.7407 12.0962 11.7407 12.0962 11.8043 12.1213C11.8223 12.2095 11.8223 12.2095 11.8331 12.294C11.8521 12.294 11.8711 12.294 11.8907 12.294C11.9149 12.3401 11.9388 12.3863 11.9627 12.4326C11.9827 12.4712 11.9827 12.4712 12.0031 12.5105C12.0346 12.582 12.0346 12.582 12.0346 12.6683C12.0631 12.6778 12.0916 12.6873 12.121 12.6971C12.121 12.7256 12.121 12.7541 12.121 12.7835C12.14 12.7835 12.159 12.7835 12.1786 12.7835C12.1881 12.8405 12.1976 12.8975 12.2074 12.9562C12.2264 12.9562 12.2454 12.9562 12.265 12.9562C12.2892 12.9975 12.3131 13.0389 12.3369 13.0804C12.3503 13.1034 12.3637 13.1265 12.3774 13.1502C12.4089 13.2154 12.4089 13.2154 12.4089 13.3017C12.4279 13.3017 12.4469 13.3017 12.4665 13.3017C12.476 13.3492 12.4855 13.3967 12.4953 13.4457C12.5143 13.4457 12.5333 13.4457 12.5529 13.4457C12.5624 13.4932 12.5719 13.5407 12.5817 13.5896C12.6007 13.5896 12.6197 13.5896 12.6392 13.5896C12.6582 13.6561 12.6772 13.7226 12.6968 13.7912C12.7158 13.7912 12.7348 13.7912 12.7544 13.7912C12.7737 13.8283 12.7929 13.8655 12.812 13.9027C12.8227 13.9234 12.8334 13.9442 12.8444 13.9655C12.8696 14.0215 12.8696 14.0215 12.8696 14.0791C12.8886 14.0791 12.9076 14.0791 12.9272 14.0791C12.9367 14.1361 12.9462 14.1931 12.9559 14.2518C12.9844 14.2613 13.0129 14.2708 13.0423 14.2806C13.0518 14.3376 13.0613 14.3946 13.0711 14.4534C13.0901 14.4534 13.1091 14.4534 13.1287 14.4534C13.1382 14.4819 13.1477 14.5104 13.1575 14.5397C13.1765 14.5492 13.1955 14.5587 13.2151 14.5685C13.2331 14.6567 13.2331 14.6567 13.2439 14.7413C13.2629 14.7413 13.2819 14.7413 13.3014 14.7413C13.3435 14.8175 13.359 14.8534 13.359 14.9428C13.378 14.9428 13.397 14.9428 13.4166 14.9428C13.4261 14.9998 13.4356 15.0568 13.4454 15.1155C13.4739 15.125 13.5024 15.1345 13.5318 15.1443C13.5318 15.1728 13.5318 15.2013 13.5318 15.2307C13.5508 15.2307 13.5698 15.2307 13.5893 15.2307C13.6314 15.3069 13.6469 15.3428 13.6469 15.4322C13.6659 15.4322 13.6849 15.4322 13.7045 15.4322C13.714 15.4893 13.7235 15.5463 13.7333 15.605C13.7618 15.6145 13.7903 15.624 13.8197 15.6338C13.8197 15.6623 13.8197 15.6908 13.8197 15.7202C13.8387 15.7202 13.8577 15.7202 13.8772 15.7202C13.8867 15.7772 13.8963 15.8342 13.906 15.8929C13.925 15.8929 13.944 15.8929 13.9636 15.8929C14.0057 15.9691 14.0212 16.005 14.0212 16.0944C14.0402 16.0944 14.0592 16.0944 14.0788 16.0944C14.1939 16.2852 14.1939 16.2852 14.1939 16.3823C14.2129 16.3823 14.232 16.3823 14.2515 16.3823C14.2705 16.4488 14.2895 16.5154 14.3091 16.5839C14.3281 16.5839 14.3471 16.5839 14.3667 16.5839C14.3762 16.6314 14.3857 16.6789 14.3955 16.7278C14.4145 16.7278 14.4335 16.7278 14.4531 16.7278C14.4625 16.7469 14.4718 16.7661 14.4815 16.7857C14.5605 16.9457 14.5605 16.9457 14.6492 17.1003C14.6834 17.1597 14.6834 17.1597 14.6834 17.2461C14.7024 17.2461 14.7214 17.2461 14.741 17.2461C14.7505 17.2936 14.76 17.3411 14.7698 17.39C14.7888 17.39 14.8078 17.39 14.8273 17.39C14.8561 17.4476 14.8849 17.5052 14.9137 17.5628C14.925 17.5835 14.9363 17.6043 14.9479 17.6257C14.9713 17.6779 14.9713 17.6779 14.9713 17.7643C14.9998 17.7738 15.0283 17.7833 15.0577 17.7931C15.0577 17.8216 15.0577 17.8501 15.0577 17.8795C15.0767 17.8795 15.0957 17.8795 15.1153 17.8795C15.1248 17.9365 15.1343 17.9935 15.144 18.0522C15.1725 18.0617 15.201 18.0712 15.2304 18.081C15.262 18.1395 15.262 18.1395 15.2898 18.2106C15.3233 18.3102 15.3233 18.3102 15.4032 18.3689C15.4212 18.4571 15.4212 18.4571 15.432 18.5416C15.451 18.5416 15.47 18.5416 15.4895 18.5416C15.5013 18.5635 15.5131 18.5854 15.5253 18.6079C15.5408 18.6365 15.5563 18.6651 15.5723 18.6946C15.5877 18.723 15.603 18.7514 15.6189 18.7806C15.6625 18.8611 15.6625 18.8611 15.7199 18.9447C15.7199 18.9732 15.7199 19.0017 15.7199 19.0311C15.7389 19.0311 15.7579 19.0311 15.7774 19.0311C15.8016 19.0772 15.8256 19.1234 15.8494 19.1696C15.8628 19.1954 15.8761 19.2211 15.8899 19.2476C15.9214 19.319 15.9214 19.319 15.9214 19.4054C15.9404 19.4054 15.9594 19.4054 15.979 19.4054C15.9885 19.4434 15.998 19.4814 16.0078 19.5205C16.0268 19.5205 16.0458 19.5205 16.0653 19.5205C16.0748 19.5775 16.0844 19.6345 16.0941 19.6933C16.1131 19.6933 16.1321 19.6933 16.1517 19.6933C16.1759 19.7345 16.1999 19.776 16.2237 19.8174C16.2371 19.8405 16.2504 19.8635 16.2642 19.8873C16.2957 19.9524 16.2957 19.9524 16.2957 20.0388C16.3147 20.0388 16.3337 20.0388 16.3533 20.0388C16.3628 20.0863 16.3723 20.1338 16.382 20.1827C16.401 20.1827 16.4201 20.1827 16.4396 20.1827C16.4491 20.2302 16.4586 20.2777 16.4684 20.3267C16.4874 20.3267 16.5064 20.3267 16.526 20.3267C16.545 20.3932 16.564 20.4597 16.5836 20.5282C16.6026 20.5282 16.6216 20.5282 16.6412 20.5282C16.6507 20.5852 16.6602 20.6422 16.67 20.701C16.689 20.701 16.708 20.701 16.7275 20.701C16.737 20.739 16.7465 20.777 16.7563 20.8161C16.7753 20.8161 16.7943 20.8161 16.8139 20.8161C16.8264 20.858 16.8264 20.858 16.8391 20.9007C16.8612 20.9919 16.8612 20.9919 16.9291 21.0177C16.9471 21.1058 16.9471 21.1058 16.9579 21.1904C16.9769 21.1904 16.9959 21.1904 17.0154 21.1904C17.0249 21.2189 17.0344 21.2474 17.0442 21.2768C17.0632 21.2863 17.0822 21.2958 17.1018 21.3056C17.1198 21.3937 17.1198 21.3937 17.1306 21.4783C17.1496 21.4783 17.1686 21.4783 17.1882 21.4783C17.2302 21.5545 17.2458 21.5904 17.2458 21.6798C17.2648 21.6798 17.2838 21.6798 17.3034 21.6798C17.3129 21.7369 17.3224 21.7939 17.3321 21.8526C17.3606 21.8621 17.3891 21.8716 17.4185 21.8814C17.4185 21.9099 17.4185 21.9384 17.4185 21.9678C17.4375 21.9678 17.4565 21.9678 17.4761 21.9678C17.4886 22.0096 17.4886 22.0096 17.5013 22.0523C17.5234 22.1436 17.5234 22.1436 17.5913 22.1693C17.6093 22.2575 17.6093 22.2575 17.6201 22.342C17.6391 22.342 17.6581 22.342 17.6776 22.342C17.6871 22.38 17.6966 22.418 17.7064 22.4572C17.7254 22.4572 17.7444 22.4572 17.764 22.4572C17.7735 22.5142 17.783 22.5712 17.7928 22.6299C17.8118 22.6299 17.8308 22.6299 17.8504 22.6299C17.8924 22.7062 17.908 22.7421 17.908 22.8315C17.927 22.8315 17.946 22.8315 17.9655 22.8315C17.975 22.879 17.9845 22.9265 17.9943 22.9754C18.0133 22.9754 18.0323 22.9754 18.0519 22.9754C18.0614 23.0229 18.0709 23.0704 18.0807 23.1194C18.0997 23.1194 18.1187 23.1194 18.1383 23.1194C18.1573 23.1859 18.1763 23.2524 18.1959 23.3209C18.2149 23.3209 18.2339 23.3209 18.2534 23.3209C18.2629 23.3684 18.2725 23.4159 18.2822 23.4649C18.3012 23.4649 18.3202 23.4649 18.3398 23.4649C18.3493 23.5219 18.3588 23.5789 18.3686 23.6376C18.3876 23.6376 18.4066 23.6376 18.4262 23.6376C18.4503 23.6843 18.4743 23.7311 18.4982 23.778C18.5115 23.804 18.5249 23.8301 18.5387 23.8569C18.5701 23.9255 18.5701 23.9255 18.5701 23.9831C18.5891 23.9831 18.6082 23.9831 18.6277 23.9831C18.6372 24.0306 18.6467 24.0781 18.6565 24.1271C18.6755 24.1271 18.6945 24.1271 18.7141 24.1271C18.7429 24.1846 18.7717 24.2422 18.8005 24.2998C18.8118 24.3206 18.823 24.3414 18.8347 24.3628C18.8581 24.415 18.8581 24.415 18.8581 24.5013C18.8866 24.5108 18.9151 24.5203 18.9444 24.5301C18.9444 24.5586 18.9444 24.5871 18.9444 24.6165C18.9634 24.6165 18.9824 24.6165 19.002 24.6165C19.0115 24.6735 19.021 24.7305 19.0308 24.7892C19.0593 24.7988 19.0878 24.8083 19.1172 24.818C19.1267 24.875 19.1362 24.9321 19.146 24.9908C19.165 24.9908 19.184 24.9908 19.2035 24.9908C19.213 25.0193 19.2225 25.0478 19.2323 25.0772C19.2513 25.0867 19.2703 25.0962 19.2899 25.1059C19.3079 25.1941 19.3079 25.1941 19.3187 25.2787C19.3377 25.2787 19.3567 25.2787 19.3763 25.2787C19.3881 25.3006 19.3999 25.3224 19.4121 25.3449C19.4276 25.3735 19.4431 25.4022 19.4591 25.4316C19.4744 25.46 19.4898 25.4884 19.5056 25.5177C19.5492 25.5982 19.5492 25.5982 19.6066 25.6818C19.6066 25.7103 19.6066 25.7388 19.6066 25.7681C19.6256 25.7681 19.6446 25.7681 19.6642 25.7681C19.6737 25.8156 19.6832 25.8631 19.693 25.9121C19.712 25.9121 19.731 25.9121 19.7506 25.9121C19.7867 25.9958 19.8082 26.0502 19.8082 26.1424C19.8272 26.1424 19.8462 26.1424 19.8657 26.1424C19.8752 26.1804 19.8847 26.2184 19.8945 26.2576C19.9135 26.2576 19.9325 26.2576 19.9521 26.2576C19.9616 26.3146 19.9711 26.3716 19.9809 26.4303C19.9999 26.4303 20.0189 26.4303 20.0385 26.4303C20.0626 26.477 20.0866 26.5238 20.1105 26.5707C20.1238 26.5967 20.1372 26.6228 20.1509 26.6496C20.1824 26.7182 20.1824 26.7182 20.1824 26.7758C20.2014 26.7758 20.2204 26.7758 20.24 26.7758C20.2495 26.8233 20.259 26.8708 20.2688 26.9198C20.2878 26.9198 20.3068 26.9198 20.3264 26.9198C20.3359 26.9673 20.3454 27.0148 20.3552 27.0637C20.3742 27.0637 20.3932 27.0637 20.4128 27.0637C20.4318 27.1302 20.4508 27.1967 20.4703 27.2653C20.4893 27.2653 20.5083 27.2653 20.5279 27.2653C20.5374 27.3223 20.5469 27.3793 20.5567 27.438C20.5757 27.438 20.5947 27.438 20.6143 27.438C20.6238 27.476 20.6333 27.514 20.6431 27.5532C20.6621 27.5532 20.6811 27.5532 20.7007 27.5532C20.7038 27.5715 20.707 27.5899 20.7102 27.6088C20.7171 27.6445 20.7171 27.6445 20.7241 27.6809C20.7284 27.7046 20.7327 27.7284 20.7372 27.7528C20.7442 27.7724 20.7511 27.7921 20.7582 27.8123C20.7868 27.8218 20.8153 27.8313 20.8446 27.8411C20.8446 27.8696 20.8446 27.8981 20.8446 27.9274C20.8636 27.9274 20.8826 27.9274 20.9022 27.9274C21.0174 28.1182 21.0174 28.1182 21.0174 28.2154C21.0364 28.2154 21.0554 28.2154 21.0749 28.2154C21.117 28.2916 21.1325 28.3275 21.1325 28.4169C21.1515 28.4169 21.1705 28.4169 21.1901 28.4169C21.1996 28.4739 21.2091 28.5309 21.2189 28.5896C21.2474 28.5991 21.2759 28.6086 21.3053 28.6184C21.3053 28.6469 21.3053 28.6754 21.3053 28.7048C21.3243 28.7048 21.3433 28.7048 21.3629 28.7048C21.3712 28.7327 21.3795 28.7606 21.388 28.7894C21.4101 28.8806 21.4101 28.8806 21.478 28.9063C21.496 28.9945 21.496 28.9945 21.5068 29.0791C21.5258 29.0791 21.5448 29.0791 21.5644 29.0791C21.5762 29.1009 21.588 29.1228 21.6002 29.1453C21.6157 29.1739 21.6312 29.2025 21.6472 29.232C21.6625 29.2604 21.6779 29.2888 21.6937 29.3181C21.7373 29.3985 21.7373 29.3985 21.7947 29.4821C21.7947 29.5107 21.7947 29.5392 21.7947 29.5685C21.8137 29.5685 21.8327 29.5685 21.8523 29.5685C21.8618 29.616 21.8713 29.6635 21.8811 29.7125C21.9001 29.7125 21.9191 29.7125 21.9387 29.7125C21.9482 29.76 21.9577 29.8075 21.9675 29.8564C21.9865 29.8564 22.0055 29.8564 22.025 29.8564C22.0612 29.9401 22.0826 29.9945 22.0826 30.0868C22.1016 30.0868 22.1206 30.0868 22.1402 30.0868C22.1497 30.1248 22.1592 30.1628 22.169 30.2019C22.188 30.2019 22.207 30.2019 22.2266 30.2019C22.2361 30.2589 22.2456 30.3159 22.2554 30.3747C22.2744 30.3747 22.2934 30.3747 22.313 30.3747C22.355 30.4509 22.3705 30.4868 22.3705 30.5762C22.3895 30.5762 22.4085 30.5762 22.4281 30.5762C22.4777 30.6711 22.523 30.7585 22.5433 30.8641C22.5623 30.8641 22.5813 30.8641 22.6009 30.8641C22.6104 30.9211 22.6199 30.9781 22.6296 31.0368C22.6582 31.0368 22.6867 31.0368 22.716 31.0368C22.7255 30.9893 22.735 30.9418 22.7448 30.8929C22.7638 30.8929 22.7828 30.8929 22.8024 30.8929C22.8119 30.8454 22.8214 30.7979 22.8312 30.7489C22.8502 30.7489 22.8692 30.7489 22.8888 30.7489C22.8983 30.7014 22.9078 30.6539 22.9176 30.605C22.9366 30.605 22.9556 30.605 22.9751 30.605C22.9781 30.5789 22.9811 30.5527 22.9841 30.5258C23.0044 30.43 23.0292 30.3909 23.0903 30.3171C23.0998 30.2886 23.1093 30.2601 23.1191 30.2307C23.1381 30.2307 23.1571 30.2307 23.1767 30.2307C23.1862 30.1832 23.1957 30.1357 23.2055 30.0868C23.2245 30.0868 23.2435 30.0868 23.263 30.0868C23.2725 30.0392 23.282 29.9917 23.2918 29.9428C23.3108 29.9428 23.3298 29.9428 23.3494 29.9428C23.3536 29.9256 23.3577 29.9084 23.362 29.8906C23.375 29.8403 23.3906 29.7906 23.407 29.7413C23.426 29.7413 23.445 29.7413 23.4646 29.7413C23.469 29.7101 23.469 29.7101 23.4736 29.6783C23.4953 29.5893 23.5266 29.5277 23.5797 29.4534C23.5987 29.4534 23.6177 29.4534 23.6373 29.4534C23.6468 29.3964 23.6563 29.3393 23.6661 29.2806C23.6946 29.2711 23.7231 29.2616 23.7525 29.2518C23.762 29.1948 23.7715 29.1378 23.7813 29.0791C23.8003 29.0791 23.8193 29.0791 23.8389 29.0791C23.8484 29.0411 23.8579 29.0031 23.8677 28.9639C23.8867 28.9639 23.9057 28.9639 23.9252 28.9639C23.9288 28.936 23.9324 28.9081 23.936 28.8793C23.942 28.8502 23.9479 28.8211 23.954 28.7912C23.973 28.7817 23.992 28.7722 24.0116 28.7624C24.0325 28.7054 24.0519 28.6478 24.0692 28.5896C24.0882 28.5896 24.1072 28.5896 24.1268 28.5896C24.1363 28.5516 24.1458 28.5136 24.1556 28.4745C24.1746 28.4745 24.1936 28.4745 24.2131 28.4745C24.2226 28.4175 24.2321 28.3605 24.2419 28.3017C24.2609 28.3017 24.2799 28.3017 24.2995 28.3017C24.3037 28.2792 24.3078 28.2566 24.3121 28.2333C24.3283 28.1578 24.3283 28.1578 24.3571 28.1002C24.3761 28.1002 24.3951 28.1002 24.4147 28.1002C24.4242 28.0432 24.4337 27.9862 24.4435 27.9274C24.4625 27.9274 24.4815 27.9274 24.501 27.9274C24.5106 27.8894 24.5201 27.8514 24.5298 27.8123C24.5488 27.8123 24.5678 27.8123 24.5874 27.8123C24.591 27.7838 24.591 27.7838 24.5946 27.7547C24.6233 27.6398 24.6759 27.5421 24.7314 27.438C24.7504 27.438 24.7694 27.438 24.789 27.438C24.7985 27.3905 24.808 27.343 24.8177 27.294C24.8367 27.294 24.8558 27.294 24.8753 27.294C24.8848 27.2465 24.8943 27.199 24.9041 27.1501C24.9231 27.1501 24.9421 27.1501 24.9617 27.1501C24.9694 27.1198 24.9771 27.0895 24.9851 27.0583C25.0156 26.9603 25.0456 26.8872 25.1057 26.8046C25.1247 26.8046 25.1437 26.8046 25.1632 26.8046C25.1668 26.7767 25.1704 26.7488 25.174 26.72C25.18 26.6909 25.1859 26.6618 25.192 26.6319C25.211 26.6224 25.23 26.6129 25.2496 26.6031C25.2765 26.5554 25.3015 26.5066 25.3252 26.4573C25.338 26.4309 25.3509 26.4044 25.3641 26.3771C25.3738 26.3567 25.3835 26.3362 25.3936 26.3152C25.4126 26.3152 25.4316 26.3152 25.4511 26.3152C25.4606 26.2582 25.4701 26.2011 25.4799 26.1424C25.4989 26.1424 25.5179 26.1424 25.5375 26.1424C25.547 26.1044 25.5565 26.0664 25.5663 26.0273C25.5853 26.0273 25.6043 26.0273 25.6239 26.0273C25.6334 25.9702 25.6429 25.9132 25.6527 25.8545C25.6812 25.845 25.7097 25.8355 25.7391 25.8257C25.7486 25.7687 25.7581 25.7117 25.7678 25.653C25.7868 25.653 25.8058 25.653 25.8254 25.653C25.8349 25.6245 25.8444 25.596 25.8542 25.5666C25.8732 25.5666 25.8922 25.5666 25.9118 25.5666C25.9142 25.5423 25.9165 25.5179 25.919 25.4928C25.9451 25.3731 25.9914 25.2961 26.0558 25.1923C26.0748 25.1923 26.0938 25.1923 26.1133 25.1923C26.116 25.1638 26.116 25.1638 26.1187 25.1347C26.1462 25.0334 26.1924 24.9615 26.25 24.8746C26.2855 24.8189 26.3151 24.7624 26.3437 24.7029C26.3627 24.7029 26.3817 24.7029 26.4012 24.7029C26.4048 24.675 26.4084 24.6471 26.412 24.6183C26.418 24.5892 26.4239 24.5601 26.43 24.5301C26.449 24.5206 26.468 24.5111 26.4876 24.5013C26.4971 24.4728 26.5066 24.4443 26.5164 24.415C26.5354 24.415 26.5544 24.415 26.574 24.415C26.5835 24.358 26.593 24.301 26.6028 24.2422C26.6313 24.2327 26.6598 24.2232 26.6891 24.2134C26.6987 24.1564 26.7082 24.0994 26.7179 24.0407C26.7369 24.0407 26.7559 24.0407 26.7755 24.0407C26.785 24.0027 26.7945 23.9647 26.8043 23.9255C26.8233 23.9255 26.8423 23.9255 26.8619 23.9255C26.8643 23.9012 26.8666 23.8768 26.8691 23.8517C26.8952 23.732 26.9415 23.655 27.0058 23.5512C27.0248 23.5512 27.0439 23.5512 27.0634 23.5512C27.0729 23.5037 27.0824 23.4562 27.0922 23.4073C27.1112 23.4073 27.1302 23.4073 27.1498 23.4073C27.1593 23.3598 27.1688 23.3123 27.1786 23.2633C27.1976 23.2633 27.2166 23.2633 27.2362 23.2633C27.2397 23.2348 27.2397 23.2348 27.2434 23.2058C27.2721 23.0909 27.3246 22.9931 27.3801 22.8891C27.3991 22.8891 27.4181 22.8891 27.4377 22.8891C27.4472 22.8416 27.4567 22.794 27.4665 22.7451C27.4855 22.7451 27.5045 22.7451 27.5241 22.7451C27.5282 22.7225 27.5324 22.7 27.5367 22.6767C27.5529 22.6011 27.5529 22.6011 27.5817 22.5436C27.6007 22.5436 27.6197 22.5436 27.6392 22.5436C27.6437 22.5124 27.6437 22.5124 27.6482 22.4806C27.67 22.3916 27.7013 22.33 27.7544 22.2557C27.7734 22.2557 27.7924 22.2557 27.812 22.2557C27.8156 22.2278 27.8191 22.1998 27.8228 22.1711C27.8287 22.142 27.8347 22.1129 27.8408 22.0829C27.8598 22.0734 27.8788 22.0639 27.8984 22.0541C27.9193 21.9972 27.9386 21.9396 27.9559 21.8814C27.9749 21.8814 27.9939 21.8814 28.0135 21.8814C28.023 21.8434 28.0325 21.8054 28.0423 21.7662C28.0613 21.7662 28.0803 21.7662 28.0999 21.7662C28.1094 21.7092 28.1189 21.6522 28.1287 21.5935C28.1477 21.5935 28.1667 21.5935 28.1863 21.5935C28.1904 21.5763 28.1946 21.559 28.1989 21.5413C28.2118 21.4909 28.2274 21.4413 28.2439 21.3919C28.2629 21.3919 28.2819 21.3919 28.3014 21.3919C28.3059 21.3608 28.3059 21.3608 28.3104 21.329C28.3322 21.24 28.3635 21.1784 28.4166 21.104C28.4356 21.104 28.4546 21.104 28.4742 21.104C28.4783 21.0868 28.4825 21.0696 28.4868 21.0518C28.4997 21.0015 28.5153 20.9518 28.5318 20.9025C28.5508 20.9025 28.5698 20.9025 28.5893 20.9025C28.5929 20.8746 28.5965 20.8467 28.6001 20.8179C28.6061 20.7888 28.612 20.7597 28.6181 20.7297C28.6371 20.7202 28.6561 20.7107 28.6757 20.701C28.6852 20.6725 28.6947 20.644 28.7045 20.6146C28.7235 20.6146 28.7425 20.6146 28.7621 20.6146C28.7716 20.5576 28.7811 20.5006 28.7909 20.4418C28.8099 20.4418 28.8289 20.4418 28.8485 20.4418C28.8675 20.3753 28.8865 20.3088 28.906 20.2403C28.925 20.2403 28.944 20.2403 28.9636 20.2403C28.9731 20.1928 28.9826 20.1453 28.9924 20.0964C29.0114 20.0964 29.0304 20.0964 29.05 20.0964C29.0595 20.0488 29.069 20.0013 29.0788 19.9524C29.0978 19.9524 29.1168 19.9524 29.1364 19.9524C29.1554 19.8859 29.1744 19.8194 29.1939 19.7509C29.2129 19.7509 29.232 19.7509 29.2515 19.7509C29.261 19.7034 29.2705 19.6559 29.2803 19.6069C29.2993 19.6069 29.3183 19.6069 29.3379 19.6069C29.3397 19.5879 29.3415 19.5689 29.3433 19.5493C29.3709 19.4474 29.4183 19.3761 29.4758 19.2884C29.5157 19.2245 29.5438 19.1598 29.5682 19.0887C29.5872 19.0887 29.6062 19.0887 29.6258 19.0887C29.6353 19.0412 29.6448 18.9937 29.6546 18.9447C29.6736 18.9447 29.6926 18.9447 29.7122 18.9447C29.7217 18.9067 29.7312 18.8687 29.741 18.8296C29.76 18.8296 29.779 18.8296 29.7986 18.8296C29.8021 18.793 29.8021 18.793 29.8058 18.7558C29.8319 18.636 29.8782 18.559 29.9425 18.4553C29.9615 18.4553 29.9805 18.4553 30.0001 18.4553C30.0037 18.4274 30.0072 18.3995 30.0109 18.3707C30.0168 18.3416 30.0228 18.3125 30.0289 18.2825C30.0479 18.273 30.0669 18.2635 30.0865 18.2537C30.1134 18.2061 30.1383 18.1573 30.162 18.108C30.1813 18.0683 30.1813 18.0683 30.201 18.0278C30.2107 18.0074 30.2204 17.9869 30.2304 17.9658C30.2494 17.9658 30.2684 17.9658 30.288 17.9658C30.2916 17.9379 30.2951 17.91 30.2988 17.8813C30.3047 17.8522 30.3107 17.8231 30.3168 17.7931C30.3358 17.7836 30.3548 17.7741 30.3744 17.7643C30.3839 17.7358 30.3934 17.7073 30.4032 17.6779C30.4222 17.6779 30.4412 17.6779 30.4607 17.6779C30.4702 17.6209 30.4797 17.5639 30.4895 17.5052C30.518 17.4957 30.5465 17.4862 30.5759 17.4764C30.5854 17.4194 30.5949 17.3624 30.6047 17.3036C30.6237 17.3036 30.6427 17.3036 30.6623 17.3036C30.6649 17.2887 30.6675 17.2737 30.6703 17.2582C30.6986 17.1633 30.7458 17.0803 30.7936 16.9941C30.8079 16.9681 30.8079 16.9681 30.8224 16.9416C30.8457 16.8991 30.8691 16.8566 30.8926 16.8142C30.9116 16.8142 30.9306 16.8142 30.9502 16.8142C30.9597 16.7667 30.9692 16.7192 30.979 16.6702C30.998 16.6702 31.017 16.6702 31.0366 16.6702C31.0461 16.6227 31.0556 16.5752 31.0653 16.5263C31.0843 16.5263 31.1034 16.5263 31.1229 16.5263C31.1271 16.5043 31.1312 16.4824 31.1355 16.4597C31.1517 16.3823 31.1517 16.3823 31.1805 16.296C31.1995 16.296 31.2185 16.296 31.2381 16.296C31.2476 16.2485 31.2571 16.201 31.2669 16.152C31.2859 16.152 31.3049 16.152 31.3245 16.152C31.334 16.1045 31.3435 16.057 31.3533 16.0081C31.3723 16.0081 31.3913 16.0081 31.4108 16.0081C31.415 15.9855 31.4192 15.9629 31.4234 15.9397C31.4396 15.8641 31.4396 15.8641 31.4684 15.8065C31.4874 15.8065 31.5064 15.8065 31.526 15.8065C31.529 15.7857 31.5319 15.765 31.535 15.7435C31.5567 15.6546 31.5881 15.593 31.6412 15.5186C31.6602 15.5186 31.6792 15.5186 31.6987 15.5186C31.7082 15.4616 31.7177 15.4046 31.7275 15.3459C31.756 15.3364 31.7845 15.3269 31.8139 15.3171C31.8234 15.2601 31.8329 15.2031 31.8427 15.1443C31.8617 15.1443 31.8807 15.1443 31.9003 15.1443C31.9098 15.1063 31.9193 15.0683 31.9291 15.0292C31.9481 15.0292 31.9671 15.0292 31.9867 15.0292C31.9962 14.9722 32.0057 14.9152 32.0154 14.8564C32.0344 14.8564 32.0534 14.8564 32.073 14.8564C32.0772 14.8392 32.0813 14.822 32.0856 14.8042C32.0986 14.7539 32.1142 14.7042 32.1306 14.6549C32.1496 14.6549 32.1686 14.6549 32.1882 14.6549C32.1977 14.6169 32.2072 14.5789 32.217 14.5397C32.236 14.5397 32.255 14.5397 32.2746 14.5397C32.2841 14.4827 32.2936 14.4257 32.3034 14.367C32.3224 14.367 32.3414 14.367 32.3609 14.367C32.3651 14.3498 32.3692 14.3325 32.3735 14.3148C32.3865 14.2644 32.4021 14.2148 32.4185 14.1654C32.4375 14.1654 32.4565 14.1654 32.4761 14.1654C32.4856 14.1084 32.4951 14.0514 32.5049 13.9927C32.5239 13.9927 32.5429 13.9927 32.5625 13.9927C32.572 13.9547 32.5815 13.9167 32.5913 13.8775C32.6103 13.8775 32.6293 13.8775 32.6488 13.8775C32.6583 13.8205 32.6678 13.7635 32.6776 13.7048C32.6966 13.7048 32.7156 13.7048 32.7352 13.7048C32.7542 13.6383 32.7732 13.5718 32.7928 13.5033C32.8118 13.5033 32.8308 13.5033 32.8504 13.5033C32.8599 13.4558 32.8694 13.4083 32.8792 13.3593C32.8982 13.3593 32.9172 13.3593 32.9368 13.3593C32.9463 13.3118 32.9558 13.2643 32.9655 13.2154C32.9845 13.2154 33.0035 13.2154 33.0231 13.2154C33.0347 13.1699 33.0347 13.1699 33.0465 13.1236C33.077 13.0256 33.107 12.9524 33.1671 12.8699C33.1861 12.8699 33.2051 12.8699 33.2247 12.8699C33.2342 12.8129 33.2437 12.7559 33.2534 12.6971C33.2725 12.6971 33.2915 12.6971 33.311 12.6971C33.3226 12.6588 33.3226 12.6588 33.3344 12.6197C33.3665 12.5304 33.4003 12.4578 33.455 12.3804C33.474 12.3804 33.493 12.3804 33.5126 12.3804C33.5221 12.3234 33.5316 12.2664 33.5414 12.2077C33.5604 12.2077 33.5794 12.2077 33.5989 12.2077C33.6084 12.1697 33.6179 12.1317 33.6277 12.0925C33.6467 12.0925 33.6657 12.0925 33.6853 12.0925C33.6877 12.0682 33.6901 12.0438 33.6925 12.0187C33.7186 11.899 33.7649 11.822 33.8293 11.7182C33.8483 11.7182 33.8673 11.7182 33.8868 11.7182C33.8904 11.6903 33.894 11.6624 33.8976 11.6337C33.9036 11.6046 33.9095 11.5755 33.9156 11.5455C33.9346 11.536 33.9536 11.5265 33.9732 11.5167C34.0035 11.4599 34.0322 11.4022 34.0596 11.344C34.0788 11.3056 34.098 11.2672 34.1172 11.2288C34.1362 11.2288 34.1552 11.2288 34.1748 11.2288C34.1783 11.2009 34.1819 11.173 34.1856 11.1442C34.1915 11.1151 34.1974 11.086 34.2035 11.056C34.2225 11.0465 34.2415 11.037 34.2611 11.0273C34.2706 10.9988 34.2801 10.9702 34.2899 10.9409C34.3089 10.9409 34.3279 10.9409 34.3475 10.9409C34.3505 10.9148 34.3534 10.8886 34.3565 10.8617C34.3768 10.7659 34.4016 10.7268 34.4627 10.653C34.4722 10.6245 34.4817 10.596 34.4915 10.5666C34.5105 10.5666 34.5295 10.5666 34.549 10.5666C34.5585 10.5191 34.568 10.4716 34.5778 10.4226C34.5968 10.4226 34.6158 10.4226 34.6354 10.4226C34.6544 10.3561 34.6734 10.2896 34.693 10.2211C34.712 10.2211 34.731 10.2211 34.7506 10.2211C34.7601 10.1736 34.7696 10.1261 34.7794 10.0772C34.7984 10.0772 34.8174 10.0772 34.8369 10.0772C34.8464 10.0297 34.8559 9.98215 34.8657 9.9332C34.8847 9.9332 34.9037 9.9332 34.9233 9.9332C34.9328 9.8762 34.9423 9.81919 34.9521 9.76046C28.938 9.76046 22.9239 9.76046 16.7275 9.76046C16.737 9.80796 16.7465 9.85547 16.7563 9.90441C16.7753 9.90441 16.7943 9.90441 16.8139 9.90441C16.8381 9.95049 16.8621 9.9967 16.8859 10.043C16.9059 10.0815 16.9059 10.0815 16.9264 10.1209C16.9579 10.1923 16.9579 10.1923 16.9579 10.2787C16.9864 10.2882 17.0149 10.2977 17.0442 10.3075C17.0442 10.336 17.0442 10.3645 17.0442 10.3939C17.0632 10.3939 17.0822 10.3939 17.1018 10.3939C17.126 10.4399 17.15 10.4861 17.1738 10.5324C17.1938 10.571 17.1938 10.571 17.2143 10.6103C17.2458 10.6818 17.2458 10.6818 17.2458 10.7681C17.2743 10.7776 17.3028 10.7871 17.3321 10.7969C17.3321 10.8254 17.3321 10.8539 17.3321 10.8833C17.3511 10.8833 17.3701 10.8833 17.3897 10.8833C17.3992 10.9403 17.4087 10.9973 17.4185 11.056C17.447 11.0655 17.4755 11.075 17.5049 11.0848C17.5144 11.1418 17.5239 11.1988 17.5337 11.2576C17.5527 11.2576 17.5717 11.2576 17.5913 11.2576C17.7064 11.4483 17.7064 11.4483 17.7064 11.5455C17.7254 11.5455 17.7444 11.5455 17.764 11.5455C17.7735 11.593 17.783 11.6405 17.7928 11.6894C17.8118 11.6894 17.8308 11.6894 17.8504 11.6894C17.8694 11.7559 17.8884 11.8225 17.908 11.891C17.927 11.891 17.946 11.891 17.9655 11.891C17.975 11.9385 17.9845 11.986 17.9943 12.0349C18.0133 12.0349 18.0323 12.0349 18.0519 12.0349C18.0614 12.0824 18.0709 12.1299 18.0807 12.1789C18.0997 12.1789 18.1187 12.1789 18.1383 12.1789C18.1745 12.2626 18.1959 12.317 18.1959 12.4092C18.2149 12.4092 18.2339 12.4092 18.2534 12.4092C18.2629 12.4567 18.2725 12.5042 18.2822 12.5532C18.3012 12.5532 18.3202 12.5532 18.3398 12.5532C18.3575 12.586 18.3575 12.586 18.3756 12.6194C18.3911 12.648 18.4066 12.6766 18.4226 12.7061C18.4456 12.7487 18.4456 12.7487 18.4692 12.7922C18.5128 12.8726 18.5128 12.8726 18.5701 12.9562C18.5701 12.9847 18.5701 13.0132 18.5701 13.0426C18.5891 13.0426 18.6082 13.0426 18.6277 13.0426C18.6372 13.0996 18.6467 13.1566 18.6565 13.2154C18.685 13.2249 18.7135 13.2344 18.7429 13.2441C18.7429 13.2726 18.7429 13.3012 18.7429 13.3305C18.7619 13.3305 18.7809 13.3305 18.8005 13.3305C18.8088 13.3584 18.8171 13.3863 18.8257 13.4151C18.8478 13.5063 18.8478 13.5063 18.9156 13.5321C18.9336 13.6202 18.9336 13.6202 18.9444 13.7048C18.9729 13.7143 19.0014 13.7238 19.0308 13.7336C19.0308 13.7621 19.0308 13.7906 19.0308 13.82C19.0498 13.82 19.0688 13.82 19.0884 13.82C19.109 13.8696 19.1296 13.9193 19.1502 13.969C19.1767 14.0291 19.1767 14.0291 19.2323 14.1079C19.2323 14.1364 19.2323 14.1649 19.2323 14.1942C19.2513 14.1942 19.2703 14.1942 19.2899 14.1942C19.4051 14.385 19.4051 14.385 19.4051 14.4821C19.4241 14.4821 19.4431 14.4821 19.4627 14.4821C19.4817 14.5487 19.5007 14.6152 19.5202 14.6837C19.5392 14.6837 19.5582 14.6837 19.5778 14.6837C19.5873 14.7407 19.5968 14.7977 19.6066 14.8564C19.6256 14.8564 19.6446 14.8564 19.6642 14.8564C19.6884 14.8977 19.7124 14.9391 19.7362 14.9806C19.7495 15.0036 19.7629 15.0267 19.7767 15.0504C19.8082 15.1155 19.8082 15.1155 19.8082 15.2019C19.8272 15.2019 19.8462 15.2019 19.8657 15.2019C19.8752 15.2494 19.8847 15.2969 19.8945 15.3459C19.9135 15.3459 19.9325 15.3459 19.9521 15.3459C19.9616 15.3934 19.9711 15.4409 19.9809 15.4898C19.9999 15.4898 20.0189 15.4898 20.0385 15.4898C20.0673 15.5474 20.0961 15.605 20.1248 15.6626C20.1361 15.6834 20.1474 15.7041 20.159 15.7256C20.1824 15.7777 20.1824 15.7777 20.1824 15.8641C20.2014 15.8641 20.2204 15.8641 20.24 15.8641C20.2495 15.9021 20.259 15.9401 20.2688 15.9793C20.2878 15.9793 20.3068 15.9793 20.3264 15.9793C20.3359 16.0363 20.3454 16.0933 20.3552 16.152C20.3837 16.1615 20.4122 16.171 20.4415 16.1808C20.451 16.2378 20.4605 16.2948 20.4703 16.3535C20.4893 16.3535 20.5083 16.3535 20.5279 16.3535C20.5374 16.3821 20.5469 16.4106 20.5567 16.4399C20.5757 16.4494 20.5947 16.4589 20.6143 16.4687C20.6323 16.5569 20.6323 16.5569 20.6431 16.6415C20.6621 16.6415 20.6811 16.6415 20.7007 16.6415C20.7427 16.7177 20.7582 16.7536 20.7582 16.843C20.7772 16.843 20.7963 16.843 20.8158 16.843C20.8253 16.9 20.8348 16.957 20.8446 17.0157C20.8731 17.0252 20.9016 17.0347 20.931 17.0445C20.931 17.073 20.931 17.1015 20.931 17.1309C20.95 17.1309 20.969 17.1309 20.9886 17.1309C21.0128 17.177 21.0367 17.2232 21.0606 17.2695C21.0739 17.2952 21.0873 17.3209 21.101 17.3474C21.1325 17.4188 21.1325 17.4188 21.1325 17.5052C21.161 17.5147 21.1895 17.5242 21.2189 17.534C21.2189 17.5625 21.2189 17.591 21.2189 17.6203C21.2379 17.6203 21.2569 17.6203 21.2765 17.6203C21.286 17.6773 21.2955 17.7344 21.3053 17.7931C21.3243 17.7931 21.3433 17.7931 21.3629 17.7931C21.4049 17.8693 21.4204 17.9052 21.4204 17.9946C21.4394 17.9946 21.4584 17.9946 21.478 17.9946C21.4875 18.0421 21.497 18.0896 21.5068 18.1386C21.5258 18.1386 21.5448 18.1386 21.5644 18.1386C21.5739 18.1861 21.5834 18.2336 21.5932 18.2825C21.6122 18.2825 21.6312 18.2825 21.6508 18.2825C21.71 18.3956 21.757 18.5061 21.7947 18.628C21.8137 18.628 21.8327 18.628 21.8523 18.628C21.8716 18.6651 21.8908 18.7023 21.9099 18.7396C21.9206 18.7603 21.9313 18.781 21.9423 18.8023C21.9675 18.8583 21.9675 18.8583 21.9675 18.9159C21.9865 18.9159 22.0055 18.9159 22.025 18.9159C22.044 18.9919 22.063 19.0679 22.0826 19.1463C22.1016 19.1463 22.1206 19.1463 22.1402 19.1463C22.1497 19.1938 22.1592 19.2413 22.169 19.2902C22.188 19.2902 22.207 19.2902 22.2266 19.2902C22.2508 19.3363 22.2747 19.3825 22.2986 19.4288C22.3119 19.4545 22.3253 19.4802 22.339 19.5067C22.3705 19.5781 22.3705 19.5781 22.3705 19.6645C22.399 19.674 22.4275 19.6835 22.4569 19.6933C22.4569 19.7218 22.4569 19.7503 22.4569 19.7797C22.4759 19.7797 22.4949 19.7797 22.5145 19.7797C22.524 19.8367 22.5335 19.8937 22.5433 19.9524C22.5718 19.9619 22.6003 19.9714 22.6296 19.9812C22.6296 20.0097 22.6296 20.0382 22.6296 20.0676C22.6487 20.0676 22.6677 20.0676 22.6872 20.0676C22.6955 20.0955 22.7039 20.1234 22.7124 20.1521C22.7345 20.2434 22.7345 20.2434 22.8024 20.2691C22.8204 20.3573 22.8204 20.3573 22.8312 20.4418C22.8502 20.4418 22.8692 20.4418 22.8888 20.4418C22.9006 20.4637 22.9124 20.4856 22.9245 20.5081C22.94 20.5367 22.9556 20.5653 22.9715 20.5948C22.9869 20.6232 23.0023 20.6516 23.0181 20.6808C23.0617 20.7613 23.0617 20.7613 23.1191 20.8449C23.1191 20.8734 23.1191 20.9019 23.1191 20.9313C23.1381 20.9313 23.1571 20.9313 23.1767 20.9313C23.1862 20.9788 23.1957 21.0263 23.2055 21.0752C23.2245 21.0752 23.2435 21.0752 23.263 21.0752C23.2872 21.122 23.3111 21.1688 23.335 21.2156C23.3484 21.2416 23.3617 21.2677 23.3755 21.2945C23.407 21.3631 23.407 21.3631 23.407 21.4207C23.426 21.4207 23.445 21.4207 23.4646 21.4207C23.4741 21.4682 23.4836 21.5157 23.4934 21.5647C23.5124 21.5647 23.5314 21.5647 23.551 21.5647C23.5752 21.6108 23.5991 21.657 23.6229 21.7032C23.6363 21.729 23.6497 21.7547 23.6634 21.7812C23.6949 21.8526 23.6949 21.8526 23.6949 21.939C23.7139 21.939 23.7329 21.939 23.7525 21.939C23.762 21.9865 23.7715 22.034 23.7813 22.0829C23.8003 22.0829 23.8193 22.0829 23.8389 22.0829C23.8484 22.1304 23.8579 22.1779 23.8677 22.2269C23.8867 22.2269 23.9057 22.2269 23.9252 22.2269C23.9442 22.2934 23.9632 22.3599 23.9828 22.4284C24.0018 22.4284 24.0208 22.4284 24.0404 22.4284C24.0499 22.4854 24.0594 22.5424 24.0692 22.6012C24.0977 22.6107 24.1262 22.6202 24.1556 22.6299C24.1556 22.6584 24.1556 22.6869 24.1556 22.7163C24.1746 22.7163 24.1936 22.7163 24.2131 22.7163C24.2226 22.7733 24.2321 22.8303 24.2419 22.8891C24.2704 22.8986 24.2989 22.9081 24.3283 22.9178C24.3378 22.9749 24.3473 23.0319 24.3571 23.0906C24.3761 23.0906 24.3951 23.0906 24.4147 23.0906C24.4242 23.1191 24.4337 23.1476 24.4435 23.177C24.4625 23.1865 24.4815 23.196 24.501 23.2058C24.519 23.2939 24.519 23.2939 24.5298 23.3785C24.5488 23.3785 24.5678 23.3785 24.5874 23.3785C24.6295 23.4547 24.645 23.4906 24.645 23.58C24.664 23.58 24.683 23.58 24.7026 23.58C24.8177 23.7708 24.8177 23.7708 24.8177 23.8679C24.8367 23.8679 24.8558 23.8679 24.8753 23.8679C24.8995 23.914 24.9235 23.9602 24.9473 24.0065C24.9607 24.0322 24.974 24.0579 24.9878 24.0844C25.0193 24.1559 25.0193 24.1559 25.0193 24.2422C25.0383 24.2422 25.0573 24.2422 25.0769 24.2422C25.1632 24.3685 25.1632 24.3685 25.1632 24.4438C25.1442 24.4438 25.1252 24.4438 25.1057 24.4438C25.103 24.4588 25.1004 24.4737 25.0977 24.4892C25.0693 24.5841 25.0221 24.6671 24.9743 24.7533C24.9648 24.7706 24.9553 24.7879 24.9456 24.8058C24.9223 24.8483 24.8988 24.8908 24.8753 24.9332C24.8563 24.9332 24.8373 24.9332 24.8177 24.9332C24.8082 24.9902 24.7987 25.0472 24.789 25.1059C24.77 25.1059 24.751 25.1059 24.7314 25.1059C24.7219 25.144 24.7124 25.182 24.7026 25.2211C24.6836 25.2211 24.6646 25.2211 24.645 25.2211C24.6408 25.2431 24.6367 25.2651 24.6324 25.2877C24.6162 25.3651 24.6162 25.3651 24.5874 25.4514C24.5684 25.4514 24.5494 25.4514 24.5298 25.4514C24.5203 25.4989 24.5108 25.5464 24.501 25.5954C24.482 25.5954 24.463 25.5954 24.4435 25.5954C24.434 25.6429 24.4245 25.6904 24.4147 25.7393C24.3957 25.7393 24.3767 25.7393 24.3571 25.7393C24.3529 25.7619 24.3488 25.7845 24.3445 25.8077C24.3283 25.8833 24.3283 25.8833 24.2995 25.9409C24.2805 25.9409 24.2615 25.9409 24.2419 25.9409C24.2375 25.9721 24.2375 25.9721 24.2329 26.0039C24.2112 26.0928 24.1799 26.1544 24.1268 26.2288C24.1078 26.2288 24.0888 26.2288 24.0692 26.2288C24.0656 26.2567 24.0621 26.2846 24.0584 26.3134C24.0525 26.3425 24.0465 26.3716 24.0404 26.4015C24.0214 26.411 24.0024 26.4205 23.9828 26.4303C23.9619 26.4873 23.9426 26.5449 23.9252 26.6031C23.9062 26.6031 23.8872 26.6031 23.8677 26.6031C23.8582 26.6411 23.8487 26.6791 23.8389 26.7182C23.8199 26.7182 23.8009 26.7182 23.7813 26.7182C23.7718 26.7752 23.7623 26.8322 23.7525 26.891C23.7335 26.891 23.7145 26.891 23.6949 26.891C23.6907 26.9082 23.6866 26.9254 23.6823 26.9432C23.6694 26.9935 23.6538 27.0432 23.6373 27.0925C23.6183 27.0925 23.5993 27.0925 23.5797 27.0925C23.5753 27.1237 23.5753 27.1237 23.5707 27.1555C23.549 27.2445 23.5177 27.3061 23.4646 27.3804C23.4456 27.3804 23.4266 27.3804 23.407 27.3804C23.4028 27.3976 23.3987 27.4149 23.3944 27.4326C23.3815 27.483 23.3659 27.5326 23.3494 27.582C23.3304 27.582 23.3114 27.582 23.2918 27.582C23.2823 27.639 23.2728 27.696 23.263 27.7547C23.244 27.7547 23.225 27.7547 23.2055 27.7547C23.196 27.7927 23.1865 27.8307 23.1767 27.8699C23.1577 27.8699 23.1387 27.8699 23.1191 27.8699C23.1096 27.9269 23.1001 27.9839 23.0903 28.0426C23.0713 28.0426 23.0523 28.0426 23.0327 28.0426C23.0137 28.1091 22.9947 28.1756 22.9751 28.2441C22.9561 28.2441 22.9371 28.2441 22.9176 28.2441C22.9081 28.2916 22.8986 28.3392 22.8888 28.3881C22.8698 28.3881 22.8508 28.3881 22.8312 28.3881C22.8217 28.4356 22.8122 28.4831 22.8024 28.5321C22.7834 28.5321 22.7644 28.5321 22.7448 28.5321C22.7258 28.5796 22.7068 28.6271 22.6872 28.676C22.6587 28.657 22.6302 28.638 22.6009 28.6184C22.6009 28.5899 22.6009 28.5614 22.6009 28.5321C22.5819 28.5321 22.5629 28.5321 22.5433 28.5321C22.5338 28.4845 22.5243 28.437 22.5145 28.3881C22.4955 28.3881 22.4765 28.3881 22.4569 28.3881C22.4207 28.3044 22.3993 28.25 22.3993 28.1578C22.3803 28.1578 22.3613 28.1578 22.3417 28.1578C22.3322 28.1198 22.3227 28.0818 22.313 28.0426C22.2939 28.0426 22.2749 28.0426 22.2554 28.0426C22.2459 27.9856 22.2364 27.9286 22.2266 27.8699C22.2076 27.8699 22.1886 27.8699 22.169 27.8699C22.1448 27.8238 22.1208 27.7776 22.097 27.7313C22.0837 27.7056 22.0703 27.6799 22.0565 27.6534C22.025 27.582 22.025 27.582 22.025 27.4956C21.9965 27.4861 21.968 27.4766 21.9387 27.4668C21.9387 27.4383 21.9387 27.4098 21.9387 27.3804C21.9197 27.3804 21.9007 27.3804 21.8811 27.3804C21.8569 27.3343 21.8329 27.2881 21.8091 27.2419C21.7957 27.2161 21.7824 27.1904 21.7686 27.1639C21.7371 27.0925 21.7371 27.0925 21.7371 27.0061C21.7086 26.9966 21.6801 26.9871 21.6508 26.9774C21.6508 26.9488 21.6508 26.9203 21.6508 26.891C21.6318 26.891 21.6128 26.891 21.5932 26.891C21.5837 26.834 21.5742 26.777 21.5644 26.7182C21.5359 26.7087 21.5074 26.6992 21.478 26.6894C21.4464 26.631 21.4464 26.631 21.4186 26.5599C21.3851 26.4603 21.3851 26.4602 21.3053 26.4015C21.2873 26.3134 21.2873 26.3134 21.2765 26.2288C21.2575 26.2288 21.2385 26.2288 21.2189 26.2288C21.1948 26.1821 21.1708 26.1353 21.1469 26.0884C21.1336 26.0624 21.1202 26.0363 21.1064 26.0095C21.0749 25.9409 21.0749 25.9409 21.0749 25.8833C21.0559 25.8833 21.0369 25.8833 21.0174 25.8833C21.0079 25.8358 20.9984 25.7883 20.9886 25.7393C20.9696 25.7393 20.9506 25.7393 20.931 25.7393C20.9215 25.6918 20.912 25.6443 20.9022 25.5954C20.8832 25.5954 20.8642 25.5954 20.8446 25.5954C20.8084 25.5117 20.787 25.4573 20.787 25.3651C20.768 25.3651 20.749 25.3651 20.7295 25.3651C20.72 25.3176 20.7105 25.2701 20.7007 25.2211C20.6817 25.2211 20.6627 25.2211 20.6431 25.2211C20.6336 25.1831 20.6241 25.1451 20.6143 25.1059C20.5953 25.1059 20.5763 25.1059 20.5567 25.1059C20.5472 25.0489 20.5377 24.9919 20.5279 24.9332C20.5089 24.9332 20.4899 24.9332 20.4703 24.9332C20.4283 24.857 20.4128 24.8211 20.4128 24.7317C20.3938 24.7317 20.3748 24.7317 20.3552 24.7317C20.3056 24.6368 20.2603 24.5494 20.24 24.4438C20.221 24.4438 20.202 24.4438 20.1824 24.4438C20.1741 24.4159 20.1658 24.3879 20.1572 24.3592C20.1352 24.2679 20.1352 24.2679 20.0673 24.2422C20.0493 24.1541 20.0493 24.1541 20.0385 24.0695C20.0195 24.0695 20.0005 24.0695 19.9809 24.0695C19.9714 24.041 19.9619 24.0125 19.9521 23.9831C19.9331 23.9736 19.9141 23.9641 19.8945 23.9543C19.8765 23.8661 19.8765 23.8661 19.8657 23.7816C19.8372 23.7721 19.8087 23.7626 19.7794 23.7528C19.7699 23.6958 19.7604 23.6388 19.7506 23.58C19.7316 23.58 19.7126 23.58 19.693 23.58C19.5778 23.3893 19.5778 23.3893 19.5778 23.2921C19.5588 23.2921 19.5398 23.2921 19.5202 23.2921C19.4782 23.2159 19.4627 23.18 19.4627 23.0906C19.4437 23.0906 19.4247 23.0906 19.4051 23.0906C19.3956 23.0336 19.3861 22.9766 19.3763 22.9178C19.3478 22.9083 19.3193 22.8988 19.2899 22.8891C19.2899 22.8606 19.2899 22.8321 19.2899 22.8027C19.2709 22.8027 19.2519 22.8027 19.2323 22.8027C19.2133 22.7362 19.1943 22.6697 19.1748 22.6012C19.1558 22.6012 19.1367 22.6012 19.1172 22.6012C19.1077 22.5441 19.0982 22.4871 19.0884 22.4284C19.0694 22.4284 19.0504 22.4284 19.0308 22.4284C18.9156 22.2377 18.9156 22.2377 18.9156 22.1405C18.8966 22.1405 18.8776 22.1405 18.8581 22.1405C18.8391 22.074 18.8201 22.0075 18.8005 21.939C18.7815 21.939 18.7625 21.939 18.7429 21.939C18.7334 21.8915 18.7239 21.844 18.7141 21.795C18.6951 21.795 18.6761 21.795 18.6565 21.795C18.6277 21.7374 18.5989 21.6798 18.5701 21.6223C18.5589 21.6015 18.5476 21.5807 18.536 21.5593C18.5126 21.5071 18.5126 21.5071 18.5126 21.4207C18.4936 21.4207 18.4746 21.4207 18.455 21.4207C18.4455 21.3827 18.436 21.3447 18.4262 21.3056C18.4072 21.3056 18.3882 21.3056 18.3686 21.3056C18.3591 21.2486 18.3496 21.1916 18.3398 21.1328C18.3208 21.1328 18.3018 21.1328 18.2822 21.1328C18.258 21.0867 18.2341 21.0405 18.2103 20.9943C18.1969 20.9685 18.1835 20.9428 18.1698 20.9163C18.1383 20.8449 18.1383 20.8449 18.1383 20.7585C18.1098 20.749 18.0813 20.7395 18.0519 20.7297C18.0519 20.7012 18.0519 20.6727 18.0519 20.6434C18.0329 20.6434 18.0139 20.6434 17.9943 20.6434C17.9848 20.5864 17.9753 20.5294 17.9655 20.4706C17.937 20.4611 17.9085 20.4516 17.8792 20.4418C17.8697 20.3848 17.8602 20.3278 17.8504 20.2691C17.8219 20.2596 17.7934 20.2501 17.764 20.2403C17.764 20.2118 17.764 20.1833 17.764 20.1539C17.745 20.1539 17.726 20.1539 17.7064 20.1539C17.6969 20.0969 17.6874 20.0399 17.6776 19.9812C17.6491 19.9717 17.6206 19.9622 17.5913 19.9524C17.5534 19.8896 17.5534 19.8896 17.5175 19.812C17.4784 19.7285 17.441 19.6551 17.3897 19.5781C17.3897 19.5496 17.3897 19.5211 17.3897 19.4917C17.3707 19.4917 17.3517 19.4917 17.3321 19.4917C17.308 19.445 17.2841 19.3982 17.2602 19.3514C17.2468 19.3253 17.2334 19.2993 17.2197 19.2724C17.1882 19.2038 17.1882 19.2038 17.1882 19.1463C17.1692 19.1463 17.1502 19.1463 17.1306 19.1463C17.1211 19.0988 17.1116 19.0512 17.1018 19.0023C17.0828 19.0023 17.0638 19.0023 17.0442 19.0023C17.0347 18.9548 17.0252 18.9073 17.0154 18.8583C16.9964 18.8583 16.9774 18.8583 16.9579 18.8583C16.9217 18.7747 16.9003 18.7203 16.9003 18.628C16.8813 18.628 16.8623 18.628 16.8427 18.628C16.8332 18.5805 16.8237 18.533 16.8139 18.4841C16.7949 18.4841 16.7759 18.4841 16.7563 18.4841C16.7468 18.4366 16.7373 18.3891 16.7275 18.3401C16.7085 18.3401 16.6895 18.3401 16.67 18.3401C16.6605 18.2926 16.651 18.2451 16.6412 18.1962C16.6222 18.1962 16.6032 18.1962 16.5836 18.1962C16.5415 18.1199 16.526 18.084 16.526 17.9946C16.507 17.9946 16.488 17.9946 16.4684 17.9946C16.4589 17.9376 16.4494 17.8806 16.4396 17.8219C16.4111 17.8124 16.3826 17.8029 16.3533 17.7931C16.3533 17.7646 16.3533 17.7361 16.3533 17.7067C16.3343 17.7067 16.3153 17.7067 16.2957 17.7067C16.2832 17.6649 16.2832 17.6649 16.2705 17.6221C16.2484 17.5309 16.2484 17.5309 16.1805 17.5052C16.1625 17.417 16.1625 17.417 16.1517 17.3324C16.1327 17.3324 16.1137 17.3324 16.0941 17.3324C16.0846 17.3039 16.0751 17.2754 16.0653 17.2461C16.0463 17.2366 16.0273 17.2271 16.0078 17.2173C15.978 17.1618 15.978 17.1618 15.9484 17.0931C15.9336 17.0594 15.9336 17.0594 15.9186 17.0251C15.8951 16.9646 15.8778 16.9062 15.8638 16.843C15.8448 16.843 15.8258 16.843 15.8062 16.843C15.6911 16.6523 15.6911 16.6523 15.6911 16.5551C15.6721 16.5551 15.6531 16.5551 15.6335 16.5551C15.5914 16.4789 15.5759 16.443 15.5759 16.3535C15.5569 16.3535 15.5379 16.3535 15.5183 16.3535C15.5088 16.2965 15.4993 16.2395 15.4895 16.1808C15.461 16.1713 15.4325 16.1618 15.4032 16.152C15.4032 16.1235 15.4032 16.095 15.4032 16.0656C15.3842 16.0656 15.3652 16.0656 15.3456 16.0656C15.3266 15.9896 15.3076 15.9136 15.288 15.8353C15.269 15.8353 15.25 15.8353 15.2304 15.8353C15.2209 15.7878 15.2114 15.7403 15.2016 15.6914C15.1826 15.6914 15.1636 15.6914 15.144 15.6914C15.1345 15.6439 15.125 15.5964 15.1153 15.5474C15.0963 15.5474 15.0772 15.5474 15.0577 15.5474C15.0482 15.4999 15.0387 15.4524 15.0289 15.4035C15.0099 15.4035 14.9909 15.4035 14.9713 15.4035C14.9523 15.3369 14.9333 15.2704 14.9137 15.2019C14.8947 15.2019 14.8757 15.2019 14.8561 15.2019C14.8466 15.1544 14.8371 15.1069 14.8273 15.058C14.8083 15.058 14.7893 15.058 14.7698 15.058C14.7603 15.001 14.7508 14.944 14.741 14.8852C14.722 14.8852 14.703 14.8852 14.6834 14.8852C14.6413 14.809 14.6258 14.7731 14.6258 14.6837C14.6068 14.6837 14.5878 14.6837 14.5682 14.6837C14.5587 14.6552 14.5492 14.6267 14.5394 14.5973C14.5204 14.5878 14.5014 14.5783 14.4819 14.5685C14.4639 14.4803 14.4639 14.4803 14.4531 14.3958C14.4341 14.3958 14.4151 14.3958 14.3955 14.3958C14.3713 14.3497 14.3473 14.3035 14.3235 14.2572C14.3101 14.2315 14.2968 14.2058 14.283 14.1793C14.2515 14.1079 14.2515 14.1079 14.2515 14.0215C14.223 14.012 14.1945 14.0025 14.1652 13.9927C14.1652 13.9642 14.1652 13.9357 14.1652 13.9063C14.1462 13.9063 14.1272 13.9063 14.1076 13.9063C14.0981 13.8493 14.0886 13.7923 14.0788 13.7336C14.0503 13.7241 14.0218 13.7146 13.9924 13.7048C13.9829 13.6478 13.9734 13.5908 13.9636 13.5321C13.9446 13.5321 13.9256 13.5321 13.906 13.5321C13.8965 13.5035 13.887 13.475 13.8772 13.4457C13.8582 13.4362 13.8392 13.4267 13.8197 13.4169C13.8017 13.3287 13.8017 13.3287 13.7909 13.2441C13.7719 13.2441 13.7529 13.2441 13.7333 13.2441C13.6912 13.1679 13.6757 13.132 13.6757 13.0426C13.6567 13.0426 13.6377 13.0426 13.6181 13.0426C13.503 12.8519 13.503 12.8519 13.503 12.7547C13.484 12.7547 13.465 12.7547 13.4454 12.7547C13.4166 12.6971 13.3878 12.6395 13.359 12.582C13.3477 12.5612 13.3364 12.5404 13.3248 12.519C13.3014 12.4668 13.3014 12.4668 13.3014 12.3804C13.2824 12.3804 13.2634 12.3804 13.2439 12.3804C13.2344 12.3424 13.2248 12.3044 13.2151 12.2653C13.1961 12.2653 13.1771 12.2653 13.1575 12.2653C13.1333 12.2192 13.1093 12.173 13.0855 12.1267C13.0655 12.0881 13.0655 12.0881 13.045 12.0488C13.0135 11.9773 13.0135 11.9773 13.0135 11.891C12.9945 11.891 12.9755 11.891 12.9559 11.891C12.9464 11.8435 12.9369 11.796 12.9272 11.747C12.9082 11.747 12.8891 11.747 12.8696 11.747C12.8601 11.6995 12.8506 11.652 12.8408 11.6031C12.8218 11.6031 12.8028 11.6031 12.7832 11.6031C12.7591 11.5564 12.7351 11.5096 12.7112 11.4627C12.6912 11.4236 12.6912 11.4236 12.6707 11.3838C12.6392 11.3152 12.6392 11.3152 12.6392 11.2576C12.6202 11.2576 12.6012 11.2576 12.5817 11.2576C12.5722 11.2006 12.5627 11.1436 12.5529 11.0848C12.5244 11.0753 12.4959 11.0658 12.4665 11.056C12.4665 11.0275 12.4665 10.999 12.4665 10.9697C12.4475 10.9697 12.4285 10.9697 12.4089 10.9697C12.4006 10.9418 12.3923 10.9139 12.3837 10.8851C12.3616 10.7939 12.3616 10.7939 12.2938 10.7681C12.2758 10.68 12.2758 10.68 12.265 10.5954C12.246 10.5954 12.227 10.5954 12.2074 10.5954C12.1832 10.5493 12.1592 10.5031 12.1354 10.4568C12.1154 10.4183 12.1154 10.4183 12.0949 10.3789C12.0634 10.3075 12.0634 10.3075 12.0634 10.2211C12.0349 10.2116 12.0064 10.2021 11.9771 10.1923C11.9771 10.1638 11.9771 10.1353 11.9771 10.1059C11.9581 10.1059 11.9391 10.1059 11.9195 10.1059C11.91 10.0489 11.9005 9.99194 11.8907 9.9332C11.8622 9.9237 11.8337 9.9142 11.8043 9.90441C11.8043 9.87591 11.8043 9.84741 11.8043 9.81804C11.7853 9.81804 11.7663 9.81804 11.7467 9.81804C11.7277 9.75153 11.7087 9.68503 11.6891 9.61651C11.6701 9.61651 11.6511 9.61651 11.6316 9.61651C11.6221 9.5595 11.6126 9.50249 11.6028 9.44376C11.5838 9.44376 11.5648 9.44376 11.5452 9.44376C11.5211 9.39705 11.4971 9.35025 11.4732 9.30341C11.4532 9.26433 11.4532 9.26433 11.4327 9.22446C11.4012 9.15585 11.4012 9.15585 11.4012 9.09827C11.3822 9.09827 11.3632 9.09827 11.3437 9.09827C11.3342 9.05077 11.3247 9.00326 11.3149 8.95432C11.2959 8.95432 11.2769 8.95432 11.2573 8.95432C11.2478 8.90681 11.2383 8.85931 11.2285 8.81036C11.2095 8.81036 11.1905 8.81036 11.1709 8.81036C11.1421 8.75278 11.1133 8.6952 11.0845 8.63762C11.0733 8.61684 11.062 8.59605 11.0504 8.57464C11.027 8.52246 11.027 8.52246 11.027 8.43608C11.008 8.43608 10.989 8.43608 10.9694 8.43608C10.9599 8.39808 10.9504 8.36008 10.9406 8.32092C10.9216 8.32092 10.9026 8.32092 10.883 8.32092C10.8735 8.26391 10.864 8.20691 10.8542 8.14818C10.8352 8.14818 10.8162 8.14818 10.7966 8.14818C10.7546 8.07195 10.7391 8.03605 10.7391 7.94664C10.7201 7.94664 10.701 7.94664 10.6815 7.94664C10.6319 7.85176 10.5866 7.76436 10.5663 7.65873C10.5473 7.65873 10.5283 7.65873 10.5087 7.65873C10.4963 7.61687 10.4963 7.61687 10.4835 7.57416C10.4614 7.48292 10.4614 7.48292 10.3936 7.4572C10.3756 7.36902 10.3756 7.36902 10.3648 7.28445C10.3363 7.27495 10.3078 7.26545 10.2784 7.25566C10.2784 7.22716 10.2784 7.19865 10.2784 7.16929C10.2594 7.16929 10.2404 7.16929 10.2208 7.16929C10.2113 7.11228 10.2018 7.05528 10.192 6.99654C10.1635 6.98704 10.135 6.97754 10.1057 6.96775C10.0962 6.91075 10.0867 6.85374 10.0769 6.79501C10.0579 6.79501 10.0389 6.79501 10.0193 6.79501C9.90412 6.60427 9.90412 6.60427 9.90412 6.5071C9.88512 6.5071 9.86612 6.5071 9.84654 6.5071C9.80449 6.43088 9.78896 6.39497 9.78896 6.30556C9.76996 6.30556 9.75095 6.30556 9.73138 6.30556C9.72187 6.24856 9.71237 6.19155 9.70258 6.13282C9.67408 6.12332 9.64558 6.11382 9.61621 6.10403C9.61621 6.07553 9.61621 6.04702 9.61621 6.01766C9.59721 6.01766 9.57821 6.01766 9.55863 6.01766C9.54913 5.96065 9.53963 5.90365 9.52984 5.84491C9.51084 5.84491 9.49184 5.84491 9.47226 5.84491C9.43021 5.76869 9.41468 5.73279 9.41468 5.64338C9.39567 5.64338 9.37667 5.64338 9.3571 5.64338C9.34759 5.59587 9.33809 5.54837 9.3283 5.49942C9.3093 5.49942 9.2903 5.49942 9.27072 5.49942C9.27072 5.45192 9.27072 5.40441 9.27072 5.35547Z" fill="#FFBE98"/>
</svg>
